<?xml version="1.0" encoding="utf-8" standalone="no"?>
<!DOCTYPE svg PUBLIC "-//W3C//DTD SVG 1.1//EN"
  "http://www.w3.org/Graphics/SVG/1.1/DTD/svg11.dtd">
<!-- Created with matplotlib (https://matplotlib.org/) -->
<svg height="345.6pt" version="1.1" viewBox="0 0 460.8 345.6" width="460.8pt" xmlns="http://www.w3.org/2000/svg" xmlns:xlink="http://www.w3.org/1999/xlink">
 <defs>
  <style type="text/css">
*{stroke-linecap:butt;stroke-linejoin:round;}
  </style>
 </defs>
 <g id="figure_1">
  <g id="patch_1">
   <path d="M 0 345.6 
L 460.8 345.6 
L 460.8 0 
L 0 0 
z
" style="fill:#ffffff;"/>
  </g>
  <g id="axes_1">
   <g id="patch_2">
    <path d="M 45.30125 314.26625 
L 450 314.26625 
L 450 28.33125 
L 45.30125 28.33125 
z
" style="fill:#ffffff;"/>
   </g>
   <g id="patch_3">
    <path clip-path="url(#pd4400eef2e)" d="M 63.696648 314.26625 
L 79.026146 314.26625 
L 79.026146 119.310568 
L 63.696648 119.310568 
z
" style="fill:#1f3989;opacity:0.6;stroke:#6977aa;stroke-linejoin:miter;"/>
   </g>
   <g id="patch_4">
    <path clip-path="url(#pd4400eef2e)" d="M 140.344138 314.26625 
L 155.673636 314.26625 
L 155.673636 124.509386 
L 140.344138 124.509386 
z
" style="fill:#1f3989;opacity:0.6;stroke:#6977aa;stroke-linejoin:miter;"/>
   </g>
   <g id="patch_5">
    <path clip-path="url(#pd4400eef2e)" d="M 216.991629 314.26625 
L 232.321127 314.26625 
L 232.321127 101.114705 
L 216.991629 101.114705 
z
" style="fill:#1f3989;opacity:0.6;stroke:#6977aa;stroke-linejoin:miter;"/>
   </g>
   <g id="patch_6">
    <path clip-path="url(#pd4400eef2e)" d="M 293.639119 314.26625 
L 308.968617 314.26625 
L 308.968617 127.108795 
L 293.639119 127.108795 
z
" style="fill:#1f3989;opacity:0.6;stroke:#6977aa;stroke-linejoin:miter;"/>
   </g>
   <g id="patch_7">
    <path clip-path="url(#pd4400eef2e)" d="M 370.28661 314.26625 
L 385.616108 314.26625 
L 385.616108 114.11175 
L 370.28661 114.11175 
z
" style="fill:#1f3989;opacity:0.6;stroke:#6977aa;stroke-linejoin:miter;"/>
   </g>
   <g id="patch_8">
    <path clip-path="url(#pd4400eef2e)" d="M 79.026146 314.26625 
L 94.355644 314.26625 
L 94.355644 158.301705 
L 79.026146 158.301705 
z
" style="fill:#528edd;opacity:0.6;stroke:#bed9fa;stroke-linejoin:miter;"/>
   </g>
   <g id="patch_9">
    <path clip-path="url(#pd4400eef2e)" d="M 155.673636 314.26625 
L 171.003134 314.26625 
L 171.003134 179.096977 
L 155.673636 179.096977 
z
" style="fill:#528edd;opacity:0.6;stroke:#bed9fa;stroke-linejoin:miter;"/>
   </g>
   <g id="patch_10">
    <path clip-path="url(#pd4400eef2e)" d="M 232.321127 314.26625 
L 247.650625 314.26625 
L 247.650625 127.108795 
L 232.321127 127.108795 
z
" style="fill:#528edd;opacity:0.6;stroke:#bed9fa;stroke-linejoin:miter;"/>
   </g>
   <g id="patch_11">
    <path clip-path="url(#pd4400eef2e)" d="M 308.968617 314.26625 
L 324.298116 314.26625 
L 324.298116 145.304659 
L 308.968617 145.304659 
z
" style="fill:#528edd;opacity:0.6;stroke:#bed9fa;stroke-linejoin:miter;"/>
   </g>
   <g id="patch_12">
    <path clip-path="url(#pd4400eef2e)" d="M 385.616108 314.26625 
L 400.945606 314.26625 
L 400.945606 147.904068 
L 385.616108 147.904068 
z
" style="fill:#528edd;opacity:0.6;stroke:#bed9fa;stroke-linejoin:miter;"/>
   </g>
   <g id="patch_13">
    <path clip-path="url(#pd4400eef2e)" d="M 94.355644 314.26625 
L 109.685142 314.26625 
L 109.685142 163.500523 
L 94.355644 163.500523 
z
" style="fill:#e09c63;opacity:0.6;stroke:#ecc7a4;stroke-linejoin:miter;"/>
   </g>
   <g id="patch_14">
    <path clip-path="url(#pd4400eef2e)" d="M 171.003134 314.26625 
L 186.332633 314.26625 
L 186.332633 210.289886 
L 171.003134 210.289886 
z
" style="fill:#e09c63;opacity:0.6;stroke:#ecc7a4;stroke-linejoin:miter;"/>
   </g>
   <g id="patch_15">
    <path clip-path="url(#pd4400eef2e)" d="M 247.650625 314.26625 
L 262.980123 314.26625 
L 262.980123 192.094023 
L 247.650625 192.094023 
z
" style="fill:#e09c63;opacity:0.6;stroke:#ecc7a4;stroke-linejoin:miter;"/>
   </g>
   <g id="patch_16">
    <path clip-path="url(#pd4400eef2e)" d="M 324.298116 314.26625 
L 339.627614 314.26625 
L 339.627614 192.094023 
L 324.298116 192.094023 
z
" style="fill:#e09c63;opacity:0.6;stroke:#ecc7a4;stroke-linejoin:miter;"/>
   </g>
   <g id="patch_17">
    <path clip-path="url(#pd4400eef2e)" d="M 400.945606 314.26625 
L 416.275104 314.26625 
L 416.275104 186.895205 
L 400.945606 186.895205 
z
" style="fill:#e09c63;opacity:0.6;stroke:#ecc7a4;stroke-linejoin:miter;"/>
   </g>
   <g id="patch_18">
    <path clip-path="url(#pd4400eef2e)" d="M 109.685142 314.26625 
L 125.01464 314.26625 
L 125.01464 181.696386 
L 109.685142 181.696386 
z
" style="fill:#f6d6a3;opacity:0.6;stroke:#f6e2bf;stroke-linejoin:miter;"/>
   </g>
   <g id="patch_19">
    <path clip-path="url(#pd4400eef2e)" d="M 186.332633 314.26625 
L 201.662131 314.26625 
L 201.662131 215.488705 
L 186.332633 215.488705 
z
" style="fill:#f6d6a3;opacity:0.6;stroke:#f6e2bf;stroke-linejoin:miter;"/>
   </g>
   <g id="patch_20">
    <path clip-path="url(#pd4400eef2e)" d="M 262.980123 314.26625 
L 278.309621 314.26625 
L 278.309621 212.889295 
L 262.980123 212.889295 
z
" style="fill:#f6d6a3;opacity:0.6;stroke:#f6e2bf;stroke-linejoin:miter;"/>
   </g>
   <g id="patch_21">
    <path clip-path="url(#pd4400eef2e)" d="M 339.627614 314.26625 
L 354.957112 314.26625 
L 354.957112 160.901114 
L 339.627614 160.901114 
z
" style="fill:#f6d6a3;opacity:0.6;stroke:#f6e2bf;stroke-linejoin:miter;"/>
   </g>
   <g id="patch_22">
    <path clip-path="url(#pd4400eef2e)" d="M 416.275104 314.26625 
L 431.604602 314.26625 
L 431.604602 194.693432 
L 416.275104 194.693432 
z
" style="fill:#f6d6a3;opacity:0.6;stroke:#f6e2bf;stroke-linejoin:miter;"/>
   </g>
   <g id="matplotlib.axis_1">
    <g id="xtick_1">
     <g id="line2d_1">
      <defs>
       <path d="M 0 0 
L 0 3.5 
" id="md4bfe6aaad" style="stroke:#000000;stroke-width:0.8;"/>
      </defs>
      <g>
       <use style="stroke:#000000;stroke-width:0.8;" x="102.020393" xlink:href="#md4bfe6aaad" y="314.26625"/>
      </g>
     </g>
     <g id="text_1">
      <!-- 流畅度 -->
      <defs>
       <path d="M 58.203125 82.03125 
Q 62.109375 76.171875 66.015625 69.53125 
L 78.515625 69.53125 
Q 84.765625 69.53125 92.578125 69.921875 
L 92.578125 62.890625 
Q 83.203125 63.28125 78.515625 63.28125 
L 53.515625 63.28125 
Q 56.640625 60.9375 58.984375 59.765625 
Q 57.03125 58.203125 53.90625 54.296875 
Q 50.78125 50.390625 44.53125 43.359375 
Q 58.59375 43.75 74.609375 44.53125 
Q 70.703125 49.21875 66.796875 52.734375 
Q 70.703125 55.46875 72.265625 57.421875 
Q 83.203125 46.09375 90.625 37.109375 
Q 87.109375 34.375 84.375 32.03125 
Q 81.25 36.328125 78.90625 39.453125 
Q 70.3125 38.671875 55.65625 37.6875 
Q 41.015625 36.71875 35.9375 35.15625 
Q 34.765625 38.671875 32.421875 41.796875 
Q 36.328125 42.96875 41.796875 49.609375 
Q 47.265625 56.25 50.78125 63.28125 
L 46.484375 63.28125 
Q 39.453125 63.28125 32.03125 62.5 
L 32.03125 69.921875 
Q 39.453125 69.53125 46.484375 69.53125 
L 57.421875 69.53125 
Q 54.296875 75 51.953125 78.125 
Q 55.859375 80.078125 58.203125 82.03125 
z
M 78.515625 31.640625 
Q 78.125 26.5625 78.125 21.484375 
L 78.125 2.34375 
Q 78.125 -1.171875 81.640625 -1.171875 
L 85.546875 -1.171875 
Q 88.671875 -1.171875 89.0625 7.8125 
Q 92.1875 5.46875 96.875 4.296875 
Q 94.53125 -5.46875 91.984375 -6.640625 
Q 89.453125 -7.8125 85.9375 -7.8125 
L 78.515625 -7.8125 
Q 71.09375 -7.8125 71.09375 -0.390625 
L 71.09375 22.265625 
Q 71.09375 26.953125 70.703125 31.640625 
L 78.515625 31.640625 
z
M 48.828125 30.859375 
Q 48.046875 26.953125 47.453125 18.9375 
Q 46.875 10.9375 43.9375 3.515625 
Q 41.015625 -3.90625 30.46875 -10.9375 
Q 27.734375 -7.421875 24.609375 -5.078125 
Q 32.421875 -1.5625 36.125 4.484375 
Q 39.84375 10.546875 40.234375 18.15625 
Q 40.625 25.78125 40.234375 31.640625 
Q 44.140625 30.859375 48.828125 30.859375 
z
M 62.5 31.640625 
Q 62.109375 29.296875 62.109375 21.875 
L 62.109375 4.6875 
Q 62.109375 -0.390625 62.5 -7.8125 
L 54.296875 -7.8125 
Q 54.6875 -0.78125 54.6875 4.6875 
L 54.6875 21.875 
Q 54.6875 28.515625 54.296875 31.640625 
L 62.5 31.640625 
z
M 29.6875 25.390625 
Q 25.78125 18.75 21.09375 8.78125 
Q 16.40625 -1.171875 13.28125 -6.640625 
Q 9.765625 -3.90625 5.078125 -1.953125 
Q 8.984375 2.734375 14.0625 11.71875 
Q 19.140625 20.703125 22.65625 30.46875 
Q 25.78125 27.734375 29.6875 25.390625 
z
M 9.765625 53.90625 
Q 18.75 48.4375 26.953125 42.578125 
Q 23.828125 39.453125 21.484375 35.546875 
Q 14.453125 42.1875 5.078125 46.875 
Q 7.421875 50 9.765625 53.90625 
z
M 14.453125 77.734375 
Q 23.4375 72.265625 29.6875 67.1875 
Q 26.953125 63.671875 24.21875 60.546875 
Q 17.96875 66.796875 9.765625 71.484375 
Q 12.5 75 14.453125 77.734375 
z
" id="SimHei-27969"/>
       <path d="M 21.484375 65.625 
Q 21.484375 74.609375 21.09375 81.640625 
L 28.90625 81.640625 
Q 28.515625 75 28.515625 65.625 
L 44.921875 65.625 
Q 44.140625 58.59375 44.140625 51.5625 
L 44.140625 28.90625 
Q 44.140625 23.4375 44.53125 15.625 
Q 50.78125 21.875 54.296875 28.515625 
Q 57.8125 35.15625 59.375 41.40625 
Q 54.296875 41.40625 50.390625 39.0625 
Q 49.21875 42.96875 47.65625 46.875 
Q 51.5625 46.484375 59.5625 53.3125 
Q 67.578125 60.15625 76.171875 68.75 
L 62.109375 68.75 
Q 57.421875 68.75 48.046875 68.359375 
L 48.046875 75.390625 
Q 55.078125 75 61.71875 75 
L 91.015625 75 
L 91.015625 68.359375 
Q 85.9375 67.1875 79.09375 61.515625 
Q 72.265625 55.859375 63.671875 47.65625 
L 96.484375 47.65625 
Q 95.3125 39.0625 94.921875 32.03125 
L 93.75 4.6875 
Q 93.359375 -3.515625 87.890625 -5.265625 
Q 82.421875 -7.03125 75 -8.203125 
Q 73.4375 -2.734375 71.09375 1.5625 
Q 81.640625 1.171875 83.78125 2.53125 
Q 85.9375 3.90625 86.328125 9.765625 
L 87.890625 41.40625 
L 82.03125 41.40625 
Q 80.46875 29.296875 76.5625 20.3125 
Q 72.65625 11.328125 66.203125 4.484375 
Q 59.765625 -2.34375 53.125 -7.03125 
Q 50 -3.90625 44.921875 -1.171875 
Q 53.515625 2.734375 59.375 8.59375 
Q 65.234375 14.453125 68.546875 21.28125 
Q 71.875 28.125 73.828125 41.40625 
L 67.1875 41.40625 
Q 64.84375 31.25 58.984375 21.484375 
Q 53.125 11.71875 48.046875 6.640625 
Q 44.53125 9.375 40.234375 11.71875 
Q 42.1875 13.28125 43.75 14.84375 
L 37.109375 14.84375 
L 37.109375 19.53125 
L 28.515625 19.53125 
L 28.515625 3.125 
Q 28.515625 -3.515625 28.90625 -10.15625 
L 21.09375 -10.15625 
Q 21.484375 -0.390625 21.484375 3.90625 
L 21.484375 19.53125 
L 12.5 19.53125 
L 12.5 15.234375 
L 5.078125 15.234375 
Q 5.46875 24.21875 5.46875 29.6875 
L 5.46875 51.171875 
Q 5.46875 58.984375 5.078125 65.625 
L 21.484375 65.625 
z
M 21.484375 45.3125 
L 21.484375 58.984375 
L 12.5 58.984375 
L 12.5 45.3125 
z
M 21.484375 25.78125 
L 21.484375 39.0625 
L 12.5 39.0625 
L 12.5 25.78125 
z
M 37.109375 45.3125 
L 37.109375 58.984375 
L 28.515625 58.984375 
L 28.515625 45.3125 
z
M 37.109375 25.78125 
L 37.109375 39.0625 
L 28.515625 39.0625 
L 28.515625 25.78125 
z
" id="SimHei-30021"/>
       <path d="M 27.34375 26.171875 
Q 38.28125 25.78125 44.921875 25.78125 
L 81.25 25.78125 
Q 77.734375 19.53125 72.65625 13.28125 
Q 67.578125 7.03125 62.890625 3.125 
Q 67.96875 0.78125 77.34375 -0.78125 
Q 86.71875 -2.34375 95.3125 -2.34375 
Q 92.96875 -4.6875 91.015625 -10.15625 
Q 79.6875 -8.59375 71.09375 -6.4375 
Q 62.5 -4.296875 56.640625 -1.5625 
Q 48.4375 -5.078125 40.421875 -7.21875 
Q 32.421875 -9.375 23.828125 -10.546875 
Q 22.65625 -7.421875 19.140625 -3.90625 
Q 26.171875 -3.90625 35.15625 -1.953125 
Q 44.140625 0 50.78125 3.125 
Q 44.140625 8.59375 37.5 19.921875 
L 27.34375 19.53125 
z
M 46.484375 79.296875 
Q 50.78125 80.46875 54.296875 82.03125 
Q 56.640625 77.734375 58.984375 70.703125 
L 73.4375 70.703125 
Q 77.734375 70.703125 89.0625 71.09375 
L 89.0625 64.0625 
Q 78.125 64.453125 72.65625 64.453125 
L 21.484375 64.453125 
Q 21.484375 46.875 21.09375 36.125 
Q 20.703125 25.390625 18.9375 14.84375 
Q 17.1875 4.296875 11.328125 -8.203125 
Q 7.8125 -5.859375 3.90625 -4.6875 
Q 10.15625 6.25 11.90625 16.796875 
Q 13.671875 27.34375 13.859375 43.75 
Q 14.0625 60.15625 13.671875 70.703125 
L 50 70.703125 
Q 48.4375 75.78125 46.484375 79.296875 
z
M 38.671875 51.5625 
Q 38.671875 57.8125 38.28125 61.328125 
L 46.484375 61.328125 
Q 46.09375 58.203125 46.09375 51.5625 
L 67.1875 51.5625 
Q 67.1875 57.8125 66.796875 61.71875 
L 75 61.71875 
Q 74.609375 57.03125 74.609375 51.5625 
Q 83.203125 51.5625 89.453125 51.953125 
L 89.453125 45.3125 
Q 83.59375 45.703125 74.609375 45.703125 
Q 74.609375 35.15625 75 30.46875 
L 38.28125 30.46875 
Q 38.671875 36.71875 38.671875 45.703125 
Q 33.984375 45.703125 25 45.3125 
L 25 51.953125 
Q 33.984375 51.5625 38.671875 51.5625 
z
M 67.1875 36.71875 
L 67.1875 45.703125 
L 46.09375 45.703125 
L 46.09375 36.71875 
z
M 44.921875 19.921875 
Q 50 12.109375 57.03125 6.640625 
Q 62.890625 10.9375 69.140625 19.921875 
L 45.3125 19.921875 
z
" id="SimHei-24230"/>
      </defs>
      <g transform="translate(81.020393 332.531875)scale(0.14 -0.14)">
       <use xlink:href="#SimHei-27969"/>
       <use x="100" xlink:href="#SimHei-30021"/>
       <use x="200" xlink:href="#SimHei-24230"/>
      </g>
     </g>
    </g>
    <g id="xtick_2">
     <g id="line2d_2">
      <g>
       <use style="stroke:#000000;stroke-width:0.8;" x="178.667884" xlink:href="#md4bfe6aaad" y="314.26625"/>
      </g>
     </g>
     <g id="text_2">
      <!-- 专业性 -->
      <defs>
       <path d="M 69.53125 -9.375 
Q 62.109375 -5.46875 30.859375 6.25 
Q 32.8125 10.9375 33.59375 13.671875 
Q 41.015625 10.9375 53.515625 6.25 
Q 59.765625 12.890625 67.578125 23.046875 
L 39.453125 23.046875 
Q 33.203125 22.65625 30.46875 21.875 
Q 30.46875 24.21875 27.34375 29.296875 
Q 31.25 31.25 34.375 41.015625 
L 19.140625 41.015625 
Q 11.71875 41.015625 5.859375 40.625 
L 5.859375 48.4375 
Q 11.71875 48.046875 19.140625 48.046875 
L 36.71875 48.046875 
L 40.234375 59.765625 
L 25.390625 59.765625 
Q 19.140625 59.765625 14.84375 59.375 
L 14.84375 66.796875 
Q 19.140625 66.40625 25.390625 66.40625 
L 41.796875 66.40625 
Q 44.53125 75.78125 45.3125 82.03125 
Q 52.734375 80.859375 53.90625 80.859375 
Q 51.953125 75 49.609375 66.40625 
L 70.703125 66.40625 
Q 76.171875 66.40625 83.984375 66.796875 
L 83.984375 59.375 
Q 78.515625 59.765625 70.703125 59.765625 
L 48.046875 59.765625 
L 44.53125 48.046875 
L 79.296875 48.046875 
Q 85.15625 48.046875 92.96875 48.4375 
L 92.96875 40.625 
Q 87.109375 41.015625 79.6875 41.015625 
L 42.578125 41.015625 
Q 39.84375 33.59375 38.671875 30.078125 
L 81.25 30.078125 
L 81.25 23.4375 
Q 78.515625 22.65625 71.671875 15.625 
Q 64.84375 8.59375 60.546875 3.125 
Q 70.703125 -0.78125 73.4375 -1.5625 
L 69.53125 -9.375 
z
" id="SimHei-19987"/>
       <path d="M 44.140625 78.515625 
Q 43.359375 67.578125 43.359375 59.765625 
L 43.359375 2.34375 
L 56.25 2.34375 
L 56.25 64.453125 
Q 56.25 70.703125 55.46875 78.515625 
L 65.234375 78.515625 
Q 64.453125 72.265625 64.453125 65.234375 
L 64.453125 2.34375 
L 79.6875 2.34375 
Q 85.9375 2.34375 94.921875 3.125 
L 94.921875 -5.46875 
Q 85.9375 -4.6875 80.078125 -4.6875 
L 20.703125 -4.6875 
Q 15.234375 -4.6875 5.078125 -5.46875 
L 5.078125 3.125 
Q 15.234375 2.34375 20.3125 2.34375 
L 34.765625 2.34375 
L 34.765625 60.15625 
Q 34.765625 68.359375 33.59375 78.515625 
z
M 16.015625 58.984375 
Q 20.703125 46.875 28.90625 23.4375 
Q 24.609375 22.65625 19.921875 20.3125 
Q 12.890625 42.96875 7.421875 55.46875 
Q 11.328125 57.03125 16.015625 58.984375 
z
M 91.40625 56.640625 
Q 86.328125 43.359375 77.34375 19.53125 
Q 73.4375 21.875 69.140625 23.046875 
Q 77.34375 38.28125 81.640625 59.765625 
Q 85.9375 58.203125 91.40625 56.640625 
z
" id="SimHei-19994"/>
       <path d="M 53.90625 70.703125 
Q 51.953125 63.671875 51.171875 58.59375 
L 63.28125 58.59375 
L 63.28125 66.796875 
Q 63.28125 73.4375 62.890625 79.6875 
L 71.09375 79.6875 
Q 70.703125 73.4375 70.703125 66.796875 
L 70.703125 58.59375 
L 78.515625 58.59375 
Q 83.59375 58.59375 90.625 58.984375 
L 90.625 51.5625 
Q 83.59375 51.953125 78.515625 51.953125 
L 70.703125 51.953125 
L 70.703125 31.25 
L 77.734375 31.25 
Q 83.59375 31.25 89.453125 31.640625 
L 89.453125 24.21875 
Q 83.59375 24.609375 77.734375 24.609375 
L 70.703125 24.609375 
L 70.703125 0.390625 
L 81.25 0.390625 
Q 87.890625 0.390625 94.140625 0.78125 
L 94.140625 -6.25 
Q 87.890625 -5.859375 81.25 -5.859375 
L 51.171875 -5.859375 
Q 44.140625 -5.859375 37.5 -6.25 
L 37.5 0.78125 
Q 44.140625 0.390625 50.78125 0.390625 
L 63.28125 0.390625 
L 63.28125 24.609375 
L 56.640625 24.609375 
Q 51.5625 24.609375 44.921875 24.21875 
L 44.921875 31.640625 
Q 50 31.25 56.640625 31.25 
L 63.28125 31.25 
L 63.28125 51.953125 
L 49.609375 51.953125 
Q 48.4375 46.09375 43.359375 34.765625 
Q 39.0625 37.109375 36.328125 37.5 
Q 41.796875 48.828125 43.359375 57.03125 
Q 44.921875 65.234375 46.09375 72.65625 
Q 50 71.484375 53.90625 70.703125 
z
M 26.5625 80.46875 
Q 26.171875 72.65625 26.171875 65.234375 
L 26.171875 6.640625 
Q 26.171875 -1.5625 26.5625 -9.765625 
L 18.359375 -9.765625 
Q 18.75 -1.5625 18.75 6.640625 
L 18.75 65.234375 
Q 18.75 73.4375 18.359375 80.46875 
L 26.5625 80.46875 
z
M 15.234375 58.203125 
Q 12.890625 41.796875 10.9375 33.59375 
Q 7.03125 34.375 3.90625 35.15625 
Q 6.640625 45.3125 8.203125 59.375 
Q 11.328125 58.984375 15.234375 58.203125 
z
M 33.203125 62.890625 
Q 36.328125 56.640625 39.453125 46.875 
Q 35.9375 45.703125 33.203125 44.140625 
Q 30.46875 52.734375 27.34375 60.15625 
Q 30.46875 61.71875 33.203125 62.890625 
z
" id="SimHei-24615"/>
      </defs>
      <g transform="translate(157.667884 332.367812)scale(0.14 -0.14)">
       <use xlink:href="#SimHei-19987"/>
       <use x="100" xlink:href="#SimHei-19994"/>
       <use x="200" xlink:href="#SimHei-24615"/>
      </g>
     </g>
    </g>
    <g id="xtick_3">
     <g id="line2d_3">
      <g>
       <use style="stroke:#000000;stroke-width:0.8;" x="255.315374" xlink:href="#md4bfe6aaad" y="314.26625"/>
      </g>
     </g>
     <g id="text_3">
      <!-- 信息丰富度 -->
      <defs>
       <path d="M 88.28125 24.609375 
Q 87.890625 19.921875 87.890625 8.984375 
Q 87.890625 -1.5625 88.28125 -7.03125 
L 80.859375 -7.03125 
L 80.859375 -0.390625 
L 47.265625 -0.390625 
L 47.265625 -8.59375 
L 39.453125 -8.59375 
Q 39.84375 -2.734375 39.84375 7.8125 
Q 39.84375 18.75 39.453125 24.609375 
L 88.28125 24.609375 
z
M 33.203125 77.734375 
Q 30.859375 75.390625 25.78125 62.109375 
L 25.78125 8.59375 
Q 25.78125 -3.125 26.171875 -9.765625 
L 17.578125 -9.765625 
Q 18.75 -2.734375 18.75 8.984375 
L 18.75 48.4375 
Q 14.0625 39.0625 9.765625 32.8125 
Q 7.421875 36.71875 3.90625 39.0625 
Q 8.203125 43.75 14.453125 55.65625 
Q 20.703125 67.578125 23.828125 80.859375 
Q 28.125 79.296875 33.203125 77.734375 
z
M 80.859375 5.859375 
L 80.859375 19.140625 
L 47.265625 19.140625 
L 47.265625 5.859375 
z
M 94.921875 60.9375 
Q 87.109375 61.328125 64.0625 61.328125 
Q 41.015625 61.328125 32.8125 60.9375 
L 32.8125 67.578125 
L 94.921875 67.578125 
z
M 89.0625 46.875 
Q 82.421875 47.265625 64.84375 47.265625 
Q 47.265625 47.265625 38.671875 46.875 
L 38.671875 53.515625 
Q 46.09375 53.125 64.0625 53.125 
Q 82.421875 53.125 89.0625 53.515625 
z
M 89.0625 33.203125 
Q 83.59375 33.59375 65.234375 33.59375 
Q 47.265625 33.59375 38.671875 33.203125 
L 38.671875 39.84375 
Q 46.875 39.453125 65.234375 39.453125 
Q 83.984375 39.453125 89.0625 39.84375 
z
M 62.890625 81.25 
Q 64.0625 78.90625 65.234375 76.171875 
Q 66.40625 73.4375 67.578125 70.3125 
Q 64.0625 69.140625 60.546875 68.359375 
Q 57.8125 76.5625 55.859375 78.515625 
Q 59.765625 80.078125 62.890625 81.25 
z
" id="SimHei-20449"/>
       <path d="M 48.4375 79.6875 
Q 44.53125 73.828125 43.359375 70.703125 
L 82.8125 70.703125 
Q 82.421875 62.890625 82.421875 49.609375 
Q 82.421875 36.71875 82.8125 27.734375 
L 17.96875 27.734375 
Q 18.359375 36.71875 18.359375 49.609375 
Q 18.359375 62.890625 17.96875 70.703125 
L 36.328125 70.703125 
Q 37.5 73.828125 38.671875 82.03125 
Q 42.96875 80.859375 48.4375 79.6875 
z
M 36.71875 21.09375 
Q 36.328125 10.546875 36.328125 5.859375 
Q 36.328125 1.171875 37.296875 0.1875 
Q 38.28125 -0.78125 43.359375 -0.78125 
L 62.890625 -0.78125 
Q 65.625 -0.78125 66.59375 0.390625 
Q 67.578125 1.5625 67.96875 8.59375 
Q 71.09375 6.640625 76.171875 5.46875 
Q 74.21875 -2.34375 72.65625 -4.296875 
Q 71.09375 -6.25 65.625 -6.640625 
L 36.71875 -6.640625 
Q 30.46875 -6.25 29.484375 -3.3125 
Q 28.515625 -0.390625 28.703125 5.078125 
Q 28.90625 10.546875 28.515625 21.09375 
L 36.71875 21.09375 
z
M 75 58.203125 
L 75 65.234375 
L 25.78125 65.234375 
L 25.78125 58.203125 
z
M 75 33.203125 
L 75 40.234375 
L 25.78125 40.234375 
L 25.78125 33.203125 
z
M 75 45.703125 
L 75 52.734375 
L 25.78125 52.734375 
L 25.78125 45.703125 
z
M 81.640625 22.265625 
Q 88.28125 13.671875 95.703125 5.078125 
Q 91.796875 2.34375 89.0625 -0.390625 
Q 81.640625 10.9375 75.390625 17.1875 
Q 78.515625 19.140625 81.640625 22.265625 
z
M 19.921875 16.796875 
Q 15.234375 2.34375 12.5 -3.515625 
Q 8.984375 -1.953125 4.6875 -0.78125 
Q 9.375 5.859375 12.5 18.75 
Q 15.625 17.578125 19.921875 16.796875 
z
M 52.34375 23.4375 
Q 56.640625 17.1875 59.375 11.71875 
Q 56.640625 10.546875 52.34375 7.8125 
Q 49.609375 14.453125 45.703125 19.53125 
Q 49.21875 21.484375 52.34375 23.4375 
z
" id="SimHei-24687"/>
       <path d="M 54.6875 82.03125 
Q 53.90625 75.390625 53.90625 64.84375 
L 78.125 64.84375 
Q 82.421875 64.84375 89.453125 65.625 
L 89.453125 57.421875 
Q 81.640625 58.203125 77.734375 58.203125 
L 53.90625 58.203125 
L 53.90625 44.140625 
L 71.484375 44.140625 
Q 78.125 44.140625 84.765625 44.921875 
L 84.765625 36.328125 
Q 77.34375 37.109375 71.484375 37.109375 
L 54.296875 37.109375 
L 54.296875 22.265625 
L 79.6875 22.265625 
Q 86.328125 22.265625 95.3125 23.046875 
L 95.3125 14.453125 
Q 86.328125 15.234375 79.6875 15.234375 
L 54.296875 15.234375 
L 54.296875 4.6875 
Q 54.296875 -1.953125 55.078125 -10.9375 
L 44.53125 -10.9375 
Q 45.3125 -1.5625 45.3125 4.6875 
L 45.3125 15.234375 
L 18.75 15.234375 
Q 12.109375 15.234375 3.90625 14.453125 
L 3.90625 23.046875 
Q 13.28125 22.265625 18.75 22.265625 
L 45.3125 22.265625 
L 45.3125 37.109375 
L 29.296875 37.109375 
Q 23.828125 37.109375 14.453125 36.328125 
L 14.453125 44.921875 
Q 23.4375 44.140625 28.90625 44.140625 
L 45.3125 44.140625 
L 45.3125 58.203125 
L 25 58.203125 
Q 18.359375 58.203125 8.984375 57.421875 
L 8.984375 65.625 
Q 18.75 64.84375 25.390625 64.84375 
L 45.3125 64.84375 
Q 45.3125 75 44.921875 82.03125 
z
" id="SimHei-20016"/>
       <path d="M 86.328125 26.171875 
Q 85.9375 19.140625 85.9375 8.59375 
Q 85.9375 -1.5625 86.328125 -8.59375 
L 78.90625 -8.59375 
L 78.90625 -5.859375 
L 21.484375 -5.859375 
L 21.484375 -8.984375 
L 14.0625 -8.984375 
Q 14.453125 -1.171875 14.453125 8.59375 
Q 14.453125 18.75 14.0625 26.171875 
L 86.328125 26.171875 
z
M 76.953125 30.46875 
L 22.265625 30.46875 
L 22.265625 48.046875 
L 76.953125 48.046875 
z
M 51.5625 81.640625 
Q 55.46875 73.828125 56.640625 71.09375 
L 91.796875 71.09375 
Q 91.40625 66.40625 91.40625 62.109375 
Q 91.40625 58.203125 91.796875 53.90625 
L 84.375 53.90625 
L 84.375 65.234375 
L 16.015625 65.234375 
L 16.015625 53.125 
L 8.59375 53.125 
Q 8.984375 58.203125 8.984375 62.109375 
Q 8.984375 66.40625 8.59375 71.09375 
L 46.875 71.09375 
Q 46.09375 73.828125 43.359375 78.515625 
Q 48.046875 79.6875 51.5625 81.640625 
z
M 61.71875 59.375 
Q 68.75 59.375 78.125 59.765625 
L 78.125 53.515625 
Q 68.75 53.90625 61.71875 53.90625 
L 37.5 53.90625 
Q 30.078125 53.90625 21.484375 53.515625 
L 21.484375 59.765625 
Q 29.6875 59.375 37.109375 59.375 
z
M 70.3125 35.9375 
L 70.3125 42.578125 
L 28.90625 42.578125 
L 28.90625 35.9375 
z
M 46.875 12.890625 
L 46.875 20.3125 
L 21.484375 20.3125 
L 21.484375 12.890625 
z
M 46.875 0 
L 46.875 7.421875 
L 21.484375 7.421875 
L 21.484375 0 
z
M 78.90625 0 
L 78.90625 7.421875 
L 53.90625 7.421875 
L 53.90625 0 
z
M 78.90625 12.890625 
L 78.90625 20.3125 
L 53.90625 20.3125 
L 53.90625 12.890625 
z
" id="SimHei-23500"/>
      </defs>
      <g transform="translate(220.315374 332.531875)scale(0.14 -0.14)">
       <use xlink:href="#SimHei-20449"/>
       <use x="100" xlink:href="#SimHei-24687"/>
       <use x="200" xlink:href="#SimHei-20016"/>
       <use x="300" xlink:href="#SimHei-23500"/>
       <use x="400" xlink:href="#SimHei-24230"/>
      </g>
     </g>
    </g>
    <g id="xtick_4">
     <g id="line2d_4">
      <g>
       <use style="stroke:#000000;stroke-width:0.8;" x="331.962865" xlink:href="#md4bfe6aaad" y="314.26625"/>
      </g>
     </g>
     <g id="text_4">
      <!-- 可操作性 -->
      <defs>
       <path d="M 56.25 54.6875 
Q 55.859375 49.609375 55.859375 43.359375 
L 55.859375 24.21875 
Q 55.859375 17.578125 56.25 12.890625 
L 48.046875 12.890625 
L 48.046875 19.921875 
L 25.78125 19.921875 
L 25.78125 9.375 
L 17.96875 9.375 
Q 18.359375 12.109375 18.359375 18.359375 
L 18.359375 43.359375 
Q 18.359375 49.609375 17.96875 54.6875 
L 56.25 54.6875 
z
M 81.25 73.046875 
Q 87.5 73.046875 94.53125 73.4375 
L 94.53125 66.015625 
Q 88.28125 66.40625 81.640625 66.40625 
L 79.296875 66.40625 
L 79.296875 1.953125 
Q 79.296875 -5.078125 75.1875 -7.21875 
Q 71.09375 -9.375 58.59375 -10.546875 
Q 57.8125 -5.46875 55.46875 -1.171875 
Q 63.671875 -1.5625 67.1875 -0.78125 
Q 70.703125 0 70.703125 3.515625 
L 70.703125 66.40625 
L 23.828125 66.40625 
Q 13.671875 66.40625 5.46875 66.015625 
L 5.46875 73.4375 
Q 13.671875 73.046875 23.4375 73.046875 
z
M 48.046875 26.5625 
L 48.046875 48.046875 
L 25.78125 48.046875 
L 25.78125 26.5625 
z
" id="SimHei-21487"/>
       <path d="M 60.9375 23.4375 
Q 60.9375 26.171875 60.546875 30.46875 
L 67.96875 30.46875 
Q 67.578125 26.171875 67.578125 23.4375 
Q 89.453125 23.4375 95.703125 23.828125 
L 95.703125 16.796875 
Q 88.671875 17.1875 73.828125 17.1875 
Q 81.25 5.078125 96.484375 1.171875 
Q 92.578125 -2.34375 90.625 -6.25 
Q 73.4375 1.953125 67.578125 16.796875 
Q 67.578125 -3.125 67.96875 -9.765625 
L 60.546875 -9.765625 
Q 60.9375 -2.734375 60.9375 16.015625 
Q 53.125 2.34375 38.28125 -7.8125 
Q 35.546875 -4.296875 31.640625 -1.5625 
Q 45.703125 4.6875 53.515625 17.1875 
Q 40.234375 17.1875 34.375 16.40625 
L 34.375 23.828125 
Q 40.625 23.4375 60.9375 23.4375 
z
M 18.75 60.9375 
Q 18.75 76.5625 18.359375 81.25 
L 26.171875 81.25 
Q 25 76.171875 25.390625 60.9375 
Q 29.6875 60.9375 35.546875 61.328125 
L 35.546875 54.296875 
Q 29.296875 54.6875 25.390625 54.6875 
L 25.390625 37.890625 
Q 29.6875 39.453125 34.765625 41.796875 
Q 34.765625 37.5 35.15625 35.15625 
Q 29.6875 32.421875 25.390625 30.859375 
L 25.390625 2.734375 
Q 25.390625 -4.296875 22.0625 -5.859375 
Q 18.75 -7.421875 11.328125 -8.984375 
Q 10.15625 -3.90625 7.8125 0 
Q 14.0625 0 16.40625 0.390625 
Q 18.75 0.78125 18.75 4.296875 
L 18.75 28.125 
Q 14.0625 26.5625 7.03125 21.875 
Q 5.46875 26.5625 3.90625 30.46875 
Q 8.59375 31.25 18.75 35.15625 
L 18.75 54.6875 
Q 11.328125 54.6875 5.46875 54.296875 
L 5.46875 61.328125 
Q 11.328125 60.9375 18.75 60.9375 
z
M 82.03125 79.6875 
Q 81.640625 74.609375 81.640625 69.53125 
Q 81.640625 64.453125 82.03125 58.984375 
L 46.09375 58.984375 
Q 46.484375 64.84375 46.484375 69.53125 
Q 46.484375 74.609375 46.09375 79.6875 
z
M 92.1875 52.34375 
Q 91.796875 47.265625 91.796875 41.796875 
Q 91.796875 36.71875 92.1875 31.25 
L 67.1875 31.25 
Q 67.578125 36.71875 67.578125 41.796875 
Q 67.578125 47.265625 67.1875 52.34375 
z
M 37.109375 31.25 
Q 37.5 36.71875 37.5 41.796875 
Q 37.5 47.265625 37.109375 52.34375 
L 60.9375 52.34375 
Q 60.546875 47.265625 60.546875 41.796875 
Q 60.546875 36.71875 60.9375 31.25 
z
M 75 64.84375 
L 75 74.21875 
L 52.734375 74.21875 
L 52.734375 64.84375 
z
M 85.546875 37.109375 
L 85.546875 46.484375 
L 73.4375 46.484375 
L 73.4375 37.109375 
z
M 54.296875 37.109375 
L 54.296875 46.484375 
L 43.359375 46.484375 
L 43.359375 37.109375 
z
" id="SimHei-25805"/>
       <path d="M 63.671875 78.90625 
Q 59.765625 75.78125 55.078125 64.0625 
L 80.859375 64.0625 
Q 89.453125 64.0625 94.53125 64.453125 
L 94.53125 57.421875 
Q 89.453125 57.8125 80.859375 57.8125 
L 62.890625 57.8125 
L 62.890625 42.578125 
L 78.90625 42.578125 
Q 85.546875 42.578125 89.84375 42.96875 
L 89.84375 35.546875 
Q 84.765625 35.9375 78.90625 35.9375 
L 62.890625 35.9375 
L 62.890625 18.359375 
L 79.6875 18.359375 
Q 87.5 18.359375 92.578125 18.75 
L 92.578125 11.328125 
Q 87.5 11.71875 80.078125 11.71875 
L 62.890625 11.71875 
L 62.890625 4.296875 
Q 62.890625 -6.640625 63.28125 -10.546875 
L 55.078125 -10.546875 
Q 55.46875 -6.25 55.46875 1.171875 
L 55.46875 57.8125 
L 51.5625 57.8125 
Q 45.703125 47.65625 40.234375 40.234375 
Q 35.9375 44.140625 32.8125 45.3125 
Q 38.28125 50.78125 44.140625 60.9375 
Q 50 71.09375 53.515625 82.8125 
Q 59.375 80.078125 63.671875 78.90625 
z
M 36.328125 77.34375 
Q 32.8125 74.609375 27.34375 60.546875 
L 27.34375 10.546875 
Q 27.34375 -1.953125 27.734375 -9.375 
L 18.75 -9.375 
Q 19.140625 -2.34375 19.140625 10.15625 
L 19.140625 46.875 
Q 13.671875 37.890625 8.59375 31.640625 
Q 5.46875 36.328125 3.125 38.28125 
Q 8.203125 43.75 15.421875 56.4375 
Q 22.65625 69.140625 26.171875 82.421875 
Q 30.46875 79.6875 36.328125 77.34375 
z
" id="SimHei-20316"/>
      </defs>
      <g transform="translate(303.962865 332.586562)scale(0.14 -0.14)">
       <use xlink:href="#SimHei-21487"/>
       <use x="100" xlink:href="#SimHei-25805"/>
       <use x="200" xlink:href="#SimHei-20316"/>
       <use x="300" xlink:href="#SimHei-24615"/>
      </g>
     </g>
    </g>
    <g id="xtick_5">
     <g id="line2d_5">
      <g>
       <use style="stroke:#000000;stroke-width:0.8;" x="408.610355" xlink:href="#md4bfe6aaad" y="314.26625"/>
      </g>
     </g>
     <g id="text_5">
      <!-- 综合 -->
      <defs>
       <path d="M 27.734375 74.609375 
Q 25 70.703125 21.09375 63.46875 
Q 17.1875 56.25 12.890625 47.65625 
L 23.828125 47.65625 
Q 28.515625 56.25 29.6875 61.328125 
Q 33.59375 58.203125 37.890625 55.859375 
Q 35.15625 53.515625 30.46875 45.109375 
Q 25.78125 36.71875 17.578125 23.828125 
Q 21.09375 24.21875 34.765625 26.5625 
Q 33.59375 22.65625 33.203125 19.140625 
Q 28.515625 19.140625 22.265625 17.96875 
Q 16.015625 16.796875 8.984375 14.84375 
Q 7.8125 19.140625 6.640625 23.046875 
Q 10.546875 24.21875 13.859375 29.6875 
Q 17.1875 35.15625 20.703125 42.1875 
Q 11.328125 41.796875 5.46875 39.453125 
L 3.125 47.265625 
Q 7.8125 50 12.109375 59.5625 
Q 16.40625 69.140625 18.75 78.515625 
Q 21.875 76.953125 27.734375 74.609375 
z
M 82.03125 31.640625 
Q 89.453125 31.640625 95.703125 32.03125 
L 95.703125 24.609375 
Q 89.453125 25 83.203125 25 
L 70.703125 25 
L 70.703125 -0.78125 
Q 70.703125 -7.421875 66.984375 -8.78125 
Q 63.28125 -10.15625 56.25 -10.546875 
Q 56.25 -7.03125 54.6875 -2.34375 
Q 59.375 -2.734375 61.328125 -2.34375 
Q 63.28125 -1.953125 63.28125 1.5625 
L 63.28125 25 
L 52.34375 25 
Q 46.09375 25 39.84375 24.609375 
L 39.84375 32.03125 
Q 46.09375 31.640625 52.34375 31.640625 
z
M 68.75 81.25 
Q 69.53125 78.125 71.875 68.359375 
L 94.140625 68.359375 
Q 93.75 64.84375 93.75 60.15625 
Q 93.75 55.859375 94.140625 51.953125 
L 85.546875 51.953125 
L 85.546875 62.109375 
L 47.65625 62.109375 
L 47.65625 51.171875 
L 39.84375 51.171875 
Q 40.234375 56.25 40.234375 60.546875 
Q 40.234375 64.84375 39.84375 68.359375 
L 62.890625 68.359375 
Q 62.109375 73.828125 60.15625 79.6875 
z
M 74.21875 47.65625 
Q 79.6875 47.65625 85.9375 48.046875 
L 85.9375 40.625 
Q 79.6875 41.40625 74.21875 41.40625 
L 60.546875 41.40625 
Q 54.296875 41.40625 48.046875 40.625 
L 48.046875 48.046875 
Q 53.90625 47.65625 60.15625 47.65625 
z
M 34.375 -4.296875 
Q 37.890625 -1.171875 42.375 5.078125 
Q 46.875 11.328125 49.609375 17.1875 
Q 52.34375 14.84375 56.640625 12.5 
Q 53.515625 7.8125 50.578125 3.3125 
Q 47.65625 -1.171875 40.234375 -9.375 
Q 37.109375 -6.640625 34.375 -4.296875 
z
M 4.6875 1.953125 
Q 13.671875 3.90625 20.3125 5.078125 
Q 26.953125 6.25 33.984375 8.203125 
Q 34.375 4.6875 34.765625 1.5625 
Q 30.859375 0.78125 22.453125 -1.359375 
Q 14.0625 -3.515625 8.203125 -6.25 
Q 5.859375 -1.953125 4.6875 1.953125 
z
M 81.640625 17.1875 
Q 85.15625 13.28125 96.875 0.390625 
Q 93.359375 -2.734375 90.625 -5.46875 
Q 87.5 -1.5625 83.78125 3.125 
Q 80.078125 7.8125 76.171875 12.109375 
Q 78.515625 14.84375 81.640625 17.1875 
z
" id="SimHei-32508"/>
       <path d="M 78.90625 28.125 
Q 78.515625 24.21875 78.515625 10.15625 
Q 78.515625 -3.90625 78.90625 -8.203125 
L 70.703125 -8.203125 
L 70.703125 -0.78125 
L 27.34375 -0.78125 
L 27.34375 -9.375 
L 19.53125 -9.375 
Q 19.921875 -4.6875 19.921875 8.59375 
Q 19.921875 22.265625 19.53125 28.125 
L 78.90625 28.125 
z
M 52.734375 75 
Q 64.0625 61.328125 71.09375 56.25 
Q 78.125 51.171875 83.984375 48.4375 
Q 89.84375 45.703125 95.3125 44.140625 
Q 91.40625 39.84375 90.234375 35.9375 
Q 82.421875 39.453125 76.171875 43.359375 
Q 69.921875 47.265625 63.46875 53.3125 
Q 57.03125 59.375 48.828125 69.921875 
Q 41.40625 59.375 34.171875 52.53125 
Q 26.953125 45.703125 21.875 41.796875 
Q 16.796875 37.890625 10.546875 33.984375 
Q 9.765625 35.546875 4.296875 40.234375 
Q 12.5 44.140625 19.921875 49.609375 
Q 27.34375 55.078125 34.765625 63.46875 
Q 42.1875 71.875 46.875 81.640625 
Q 51.171875 78.90625 54.6875 77.34375 
z
M 70.703125 5.46875 
L 70.703125 21.875 
L 27.34375 21.875 
L 27.34375 5.46875 
z
M 61.328125 44.140625 
Q 67.578125 44.140625 72.265625 44.53125 
L 72.265625 37.109375 
Q 67.1875 37.5 61.71875 37.5 
L 39.84375 37.5 
Q 31.640625 37.5 26.5625 37.109375 
L 26.5625 44.53125 
Q 33.984375 44.140625 39.84375 44.140625 
z
" id="SimHei-21512"/>
      </defs>
      <g transform="translate(394.610355 332.4225)scale(0.14 -0.14)">
       <use xlink:href="#SimHei-32508"/>
       <use x="100" xlink:href="#SimHei-21512"/>
      </g>
     </g>
    </g>
   </g>
   <g id="matplotlib.axis_2">
    <g id="ytick_1">
     <g id="line2d_6">
      <defs>
       <path d="M 0 0 
L -3.5 0 
" id="m77d00b062a" style="stroke:#000000;stroke-width:0.8;"/>
      </defs>
      <g>
       <use style="stroke:#000000;stroke-width:0.8;" x="45.30125" xlink:href="#m77d00b062a" y="314.26625"/>
      </g>
     </g>
     <g id="text_6">
      <!-- 0 -->
      <defs>
       <path d="M 46.34375 33.109375 
Q 46.34375 23.1875 43.5625 14.59375 
Q 41.890625 9.328125 39.078125 5.953125 
Q 36.28125 2.59375 32.71875 0.609375 
Q 29.15625 -1.375 24.953125 -1.375 
Q 20.171875 -1.375 16.3125 1.0625 
Q 12.453125 3.515625 9.46875 8.0625 
Q 7.328125 11.375 5.71875 16.890625 
Q 3.609375 24.359375 3.609375 32.328125 
Q 3.609375 43.109375 6.640625 52.15625 
Q 9.125 59.625 14.203125 63.59375 
Q 19.28125 67.578125 24.953125 67.578125 
Q 30.71875 67.578125 35.71875 63.640625 
Q 40.71875 59.71875 43.0625 53.078125 
Q 46.34375 43.953125 46.34375 33.109375 
z
M 31.296875 33.203125 
Q 31.296875 50.59375 31.109375 53.46875 
Q 30.609375 60.25 28.765625 62.640625 
Q 27.546875 64.203125 24.8125 64.203125 
Q 22.703125 64.203125 21.484375 63.03125 
Q 19.671875 61.328125 19.03125 57 
Q 18.40625 52.6875 18.40625 26.859375 
Q 18.40625 12.796875 19.390625 8.015625 
Q 20.125 4.546875 21.484375 3.375 
Q 22.859375 2.203125 25.09375 2.203125 
Q 27.546875 2.203125 28.765625 3.765625 
Q 30.8125 6.5 31.109375 12.203125 
z
" id="TimesNewRomanPS-BoldMT-48"/>
      </defs>
      <g transform="translate(33.30125 317.577187)scale(0.1 -0.1)">
       <use xlink:href="#TimesNewRomanPS-BoldMT-48"/>
      </g>
     </g>
    </g>
    <g id="ytick_2">
     <g id="line2d_7">
      <g>
       <use style="stroke:#000000;stroke-width:0.8;" x="45.30125" xlink:href="#m77d00b062a" y="262.278068"/>
      </g>
     </g>
     <g id="text_7">
      <!-- 2 -->
      <defs>
       <path d="M 41.40625 0 
L 2.4375 0 
L 2.4375 1.078125 
Q 20.359375 22.40625 24.1875 29.78125 
Q 28.03125 37.15625 28.03125 44.1875 
Q 28.03125 49.3125 24.859375 52.703125 
Q 21.6875 56.109375 17.09375 56.109375 
Q 9.578125 56.109375 5.421875 48.578125 
L 3.609375 49.21875 
Q 6.25 58.59375 11.625 63.078125 
Q 17 67.578125 24.03125 67.578125 
Q 29.046875 67.578125 33.203125 65.234375 
Q 37.359375 62.890625 39.703125 58.8125 
Q 42.046875 54.734375 42.046875 51.171875 
Q 42.046875 44.671875 38.421875 37.984375 
Q 33.5 28.953125 16.890625 12.796875 
L 31.203125 12.796875 
Q 36.46875 12.796875 38.0625 13.234375 
Q 39.65625 13.671875 40.671875 14.71875 
Q 41.703125 15.765625 43.359375 19.140625 
L 45.125 19.140625 
z
" id="TimesNewRomanPS-BoldMT-50"/>
      </defs>
      <g transform="translate(33.30125 265.589006)scale(0.1 -0.1)">
       <use xlink:href="#TimesNewRomanPS-BoldMT-50"/>
      </g>
     </g>
    </g>
    <g id="ytick_3">
     <g id="line2d_8">
      <g>
       <use style="stroke:#000000;stroke-width:0.8;" x="45.30125" xlink:href="#m77d00b062a" y="210.289886"/>
      </g>
     </g>
     <g id="text_8">
      <!-- 4 -->
      <defs>
       <path d="M 2.484375 24.953125 
L 33.9375 67.578125 
L 39.890625 67.578125 
L 39.890625 24.953125 
L 45.953125 24.953125 
L 45.953125 14.84375 
L 39.890625 14.84375 
L 39.890625 0 
L 26.46875 0 
L 26.46875 14.84375 
L 2.484375 14.84375 
z
M 7.234375 24.953125 
L 26.46875 24.953125 
L 26.46875 51.078125 
z
" id="TimesNewRomanPS-BoldMT-52"/>
      </defs>
      <g transform="translate(33.30125 213.600824)scale(0.1 -0.1)">
       <use xlink:href="#TimesNewRomanPS-BoldMT-52"/>
      </g>
     </g>
    </g>
    <g id="ytick_4">
     <g id="line2d_9">
      <g>
       <use style="stroke:#000000;stroke-width:0.8;" x="45.30125" xlink:href="#m77d00b062a" y="158.301705"/>
      </g>
     </g>
     <g id="text_9">
      <!-- 6 -->
      <defs>
       <path d="M 46.96875 67.578125 
L 46.96875 66.21875 
Q 38.140625 63.96875 32.78125 60.421875 
Q 27.4375 56.890625 24.328125 51.828125 
Q 21.234375 46.78125 19.53125 39.3125 
Q 21.6875 40.765625 23.09375 41.21875 
Q 26.265625 42.1875 29.5 42.1875 
Q 36.921875 42.1875 41.875 36.78125 
Q 46.828125 31.390625 46.828125 22.078125 
Q 46.828125 15.53125 44.140625 10.0625 
Q 41.453125 4.59375 36.515625 1.609375 
Q 31.59375 -1.375 25.984375 -1.375 
Q 19.875 -1.375 14.6875 1.96875 
Q 9.515625 5.328125 6.609375 11.765625 
Q 3.71875 18.21875 3.71875 25.78125 
Q 3.71875 36.921875 9.0625 46.515625 
Q 14.40625 56.109375 24.234375 61.796875 
Q 34.078125 67.484375 46.96875 67.578125 
z
M 18.890625 35.359375 
Q 18.5 28.609375 18.5 25.484375 
Q 18.5 18.75 19.796875 12.453125 
Q 21.09375 6.15625 23.34375 3.609375 
Q 24.953125 1.8125 27.15625 1.8125 
Q 29.390625 1.8125 31.140625 4.421875 
Q 32.90625 7.03125 32.90625 15.046875 
Q 32.90625 28.515625 29.640625 33.640625 
Q 27.546875 36.96875 23.96875 36.96875 
Q 22.015625 36.96875 18.890625 35.359375 
z
" id="TimesNewRomanPS-BoldMT-54"/>
      </defs>
      <g transform="translate(33.30125 161.612642)scale(0.1 -0.1)">
       <use xlink:href="#TimesNewRomanPS-BoldMT-54"/>
      </g>
     </g>
    </g>
    <g id="ytick_5">
     <g id="line2d_10">
      <g>
       <use style="stroke:#000000;stroke-width:0.8;" x="45.30125" xlink:href="#m77d00b062a" y="106.313523"/>
      </g>
     </g>
     <g id="text_10">
      <!-- 8 -->
      <defs>
       <path d="M 34.078125 37.40625 
Q 41.0625 32.28125 43.765625 27.859375 
Q 46.484375 23.4375 46.484375 17.71875 
Q 46.484375 9.71875 40.453125 4.171875 
Q 34.421875 -1.375 24.078125 -1.375 
Q 14.265625 -1.375 8.890625 3.453125 
Q 3.515625 8.296875 3.515625 15.28125 
Q 3.515625 20.609375 6.609375 24.609375 
Q 9.71875 28.609375 16.9375 31.9375 
Q 9.078125 37.9375 6.859375 41.75 
Q 4.640625 45.5625 4.640625 50.59375 
Q 4.640625 57.234375 10.28125 62.28125 
Q 15.921875 67.328125 25.734375 67.328125 
Q 35.203125 67.328125 40.296875 62.859375 
Q 45.40625 58.40625 45.40625 52.15625 
Q 45.40625 47.46875 42.640625 43.875 
Q 39.890625 40.28125 34.078125 37.40625 
z
M 30.375 39.890625 
Q 32.171875 42.328125 33.046875 45.359375 
Q 33.9375 48.390625 33.9375 52 
Q 33.9375 58.34375 31.203125 61.71875 
Q 29.15625 64.3125 25.53125 64.3125 
Q 22.265625 64.3125 19.96875 61.9375 
Q 17.671875 59.578125 17.671875 56.0625 
Q 17.671875 52.484375 20.234375 48.65625 
Q 22.796875 44.828125 30.375 39.890625 
z
M 20.609375 29.59375 
Q 19.09375 28.21875 18.453125 27.09375 
Q 17.484375 25.390625 16.703125 22.109375 
Q 15.921875 18.84375 15.921875 15.28125 
Q 15.921875 10.6875 17.09375 7.59375 
Q 18.265625 4.5 20.4375 3.125 
Q 22.609375 1.765625 24.90625 1.765625 
Q 28.46875 1.765625 30.90625 4.375 
Q 33.34375 6.984375 33.34375 11.53125 
Q 33.34375 21 20.609375 29.59375 
z
" id="TimesNewRomanPS-BoldMT-56"/>
      </defs>
      <g transform="translate(33.30125 109.62446)scale(0.1 -0.1)">
       <use xlink:href="#TimesNewRomanPS-BoldMT-56"/>
      </g>
     </g>
    </g>
    <g id="ytick_6">
     <g id="line2d_11">
      <g>
       <use style="stroke:#000000;stroke-width:0.8;" x="45.30125" xlink:href="#m77d00b062a" y="54.325341"/>
      </g>
     </g>
     <g id="text_11">
      <!-- 10 -->
      <defs>
       <path d="M 32.5625 67.578125 
L 32.5625 13.421875 
Q 32.5625 7.328125 33.09375 5.640625 
Q 33.640625 3.953125 35.34375 2.875 
Q 37.0625 1.8125 40.828125 1.8125 
L 42.328125 1.8125 
L 42.328125 0 
L 7.46875 0 
L 7.46875 1.8125 
L 9.234375 1.8125 
Q 13.484375 1.8125 15.28125 2.78125 
Q 17.09375 3.765625 17.71875 5.46875 
Q 18.359375 7.171875 18.359375 13.421875 
L 18.359375 47.75 
Q 18.359375 52.34375 17.921875 53.484375 
Q 17.484375 54.640625 16.28125 55.4375 
Q 15.09375 56.25 13.53125 56.25 
Q 11.03125 56.25 7.46875 54.6875 
L 6.59375 56.453125 
L 30.953125 67.578125 
z
" id="TimesNewRomanPS-BoldMT-49"/>
      </defs>
      <g transform="translate(28.30125 57.636278)scale(0.1 -0.1)">
       <use xlink:href="#TimesNewRomanPS-BoldMT-49"/>
       <use x="50" xlink:href="#TimesNewRomanPS-BoldMT-48"/>
      </g>
     </g>
    </g>
    <g id="text_12">
     <!-- 专家分数 -->
     <defs>
      <path d="M 53.515625 17.578125 
Q 40.625 7.421875 29.6875 1.5625 
Q 18.75 -4.296875 10.9375 -8.203125 
Q 7.8125 -4.296875 5.078125 -1.171875 
Q 24.21875 5.078125 35.34375 12.109375 
Q 46.484375 19.140625 51.171875 24.21875 
Q 49.609375 26.953125 48.046875 28.90625 
Q 35.9375 20.3125 26.5625 15.234375 
Q 17.1875 10.15625 11.71875 8.203125 
Q 8.984375 12.109375 5.859375 14.84375 
Q 21.484375 19.53125 30.65625 25 
Q 39.84375 30.46875 43.75 33.984375 
Q 42.1875 35.9375 40.234375 38.28125 
Q 33.984375 34.765625 26.75 31.4375 
Q 19.53125 28.125 11.328125 24.609375 
Q 8.984375 28.515625 5.859375 32.421875 
Q 21.875 36.328125 30.46875 40.625 
Q 39.0625 44.921875 42.96875 49.21875 
L 37.5 49.21875 
Q 32.03125 49.21875 24.609375 48.828125 
L 24.609375 55.859375 
Q 32.03125 55.46875 37.5 55.46875 
L 64.0625 55.46875 
Q 69.140625 55.46875 76.5625 55.859375 
L 76.5625 48.828125 
Q 69.140625 49.21875 64.0625 49.21875 
L 53.515625 49.21875 
Q 50 46.09375 45.703125 42.1875 
Q 48.828125 39.453125 51.5625 36.515625 
Q 54.296875 33.59375 57.421875 28.515625 
Q 62.109375 30.859375 67.96875 34.953125 
Q 73.828125 39.0625 78.515625 45.3125 
Q 84.375 39.84375 86.328125 37.890625 
Q 81.640625 35.9375 78.125 33.984375 
Q 74.609375 32.03125 72.265625 29.6875 
Q 75.78125 17.96875 81.25 12.890625 
Q 86.71875 7.8125 96.484375 3.125 
Q 92.578125 0.390625 89.453125 -4.296875 
Q 78.515625 2.734375 73.4375 10.34375 
Q 68.359375 17.96875 66.40625 26.171875 
Q 63.28125 24.21875 60.15625 22.65625 
Q 62.109375 12.109375 61.90625 5.078125 
Q 61.71875 -1.953125 56.046875 -5.65625 
Q 50.390625 -9.375 42.578125 -10.546875 
Q 41.015625 -5.46875 39.0625 -1.5625 
Q 45.703125 -1.5625 49.609375 -0.390625 
Q 53.515625 0.78125 54.09375 5.46875 
Q 54.6875 10.15625 53.515625 17.578125 
z
M 52.34375 82.421875 
Q 53.125 78.515625 55.859375 70.703125 
L 91.796875 70.703125 
Q 91.40625 64.453125 91.40625 60.546875 
Q 91.40625 57.03125 91.796875 51.5625 
L 83.59375 51.5625 
L 83.59375 64.453125 
L 15.625 64.453125 
L 15.625 49.609375 
L 7.421875 49.609375 
Q 7.8125 55.859375 7.8125 60.546875 
Q 7.8125 65.625 7.421875 70.703125 
L 46.484375 70.703125 
Q 44.921875 75.78125 42.96875 79.6875 
Q 48.046875 80.859375 52.34375 82.421875 
z
" id="SimHei-23478"/>
      <path d="M 15.625 -10.15625 
Q 12.890625 -5.859375 8.984375 -3.515625 
Q 15.234375 -1.171875 20.3125 2.140625 
Q 25.390625 5.46875 29.296875 10.34375 
Q 33.203125 15.234375 35.15625 21.09375 
Q 37.109375 26.953125 37.890625 35.546875 
Q 28.90625 35.546875 23.4375 35.15625 
L 23.4375 43.359375 
Q 29.6875 42.96875 39.453125 42.96875 
L 78.515625 42.96875 
Q 77.734375 37.109375 77.34375 32.8125 
L 74.21875 3.90625 
Q 73.4375 -3.125 67.96875 -5.46875 
Q 62.5 -7.8125 55.859375 -8.203125 
Q 55.46875 -4.296875 51.953125 0.78125 
Q 60.15625 0.390625 63.078125 1.359375 
Q 66.015625 2.34375 66.796875 8.203125 
L 69.53125 35.546875 
L 46.09375 35.546875 
Q 44.921875 25.390625 42.765625 18.546875 
Q 40.625 11.71875 36.71875 6.640625 
Q 32.8125 1.5625 27.34375 -2.734375 
Q 21.875 -7.03125 15.625 -10.15625 
z
M 61.71875 80.859375 
Q 64.453125 72.65625 72.84375 62.109375 
Q 81.25 51.5625 96.484375 43.75 
Q 93.359375 41.015625 90.234375 35.546875 
Q 83.203125 40.625 77.921875 45.109375 
Q 72.65625 49.609375 69.140625 53.515625 
Q 65.625 57.421875 61.328125 64.640625 
Q 57.03125 71.875 54.296875 78.125 
Q 58.59375 79.296875 61.71875 80.859375 
z
M 42.1875 75.390625 
Q 38.671875 69.140625 36.328125 64.453125 
Q 33.984375 59.765625 31.640625 56.046875 
Q 29.296875 52.34375 24.609375 46.09375 
Q 19.921875 39.84375 13.28125 33.203125 
Q 9.765625 36.71875 6.25 38.671875 
Q 14.0625 45.703125 18.546875 51.5625 
Q 23.046875 57.421875 27.140625 64.25 
Q 31.25 71.09375 34.375 79.296875 
Q 37.5 76.953125 42.1875 75.390625 
z
" id="SimHei-20998"/>
      <path d="M 70.703125 76.953125 
Q 69.921875 75 68.75 71.671875 
Q 67.578125 68.359375 65.234375 59.765625 
L 83.203125 59.765625 
Q 87.109375 59.765625 92.578125 60.15625 
L 92.578125 53.125 
Q 88.28125 53.515625 85.9375 53.515625 
Q 85.9375 47.265625 83.78125 33.78125 
Q 81.640625 20.3125 76.171875 10.546875 
Q 80.078125 5.859375 84.953125 2.140625 
Q 89.84375 -1.5625 94.140625 -3.125 
Q 89.453125 -6.640625 87.890625 -9.765625 
Q 83.203125 -7.03125 79.296875 -3.515625 
Q 75.390625 0 71.484375 5.078125 
Q 67.1875 0.390625 62.296875 -2.921875 
Q 57.421875 -6.25 50 -10.15625 
Q 48.046875 -6.640625 44.53125 -4.6875 
Q 50.390625 -2.34375 57.03125 1.953125 
Q 63.671875 6.25 67.1875 10.546875 
Q 64.453125 16.015625 61.90625 22.265625 
Q 59.375 28.515625 57.421875 38.671875 
Q 56.25 35.546875 53.515625 30.46875 
Q 50.78125 32.03125 46.875 33.59375 
Q 53.125 44.53125 57.03125 57.421875 
Q 60.9375 70.3125 62.109375 79.6875 
Q 66.796875 77.734375 70.703125 76.953125 
z
M 32.8125 35.15625 
Q 31.25 33.59375 29.296875 30.078125 
L 50.78125 30.078125 
Q 48.4375 20.3125 42.578125 10.546875 
Q 48.828125 8.203125 52.34375 6.25 
Q 50.390625 3.515625 48.828125 0.390625 
Q 45.3125 2.734375 38.28125 5.078125 
Q 30.46875 -3.515625 11.328125 -10.15625 
Q 9.375 -5.859375 6.25 -4.296875 
Q 24.609375 0 31.25 7.421875 
Q 20.3125 10.15625 13.28125 12.109375 
Q 15.625 15.625 19.53125 23.828125 
Q 15.625 23.828125 6.640625 23.4375 
L 6.640625 30.46875 
Q 14.0625 30.078125 21.875 30.078125 
Q 23.4375 33.59375 24.21875 37.890625 
Q 28.515625 36.328125 32.8125 35.15625 
z
M 27.734375 61.71875 
Q 27.734375 71.09375 27.34375 79.6875 
L 35.15625 79.6875 
Q 34.765625 71.484375 34.765625 61.71875 
Q 48.046875 61.71875 53.515625 62.109375 
L 53.515625 55.078125 
Q 48.046875 55.46875 34.765625 55.46875 
Q 34.765625 44.140625 35.15625 37.890625 
L 27.34375 37.890625 
Q 27.734375 43.359375 27.734375 51.5625 
Q 25.78125 48.4375 20.3125 43.546875 
Q 14.84375 38.671875 10.15625 35.9375 
Q 8.203125 39.453125 4.296875 41.015625 
Q 7.8125 42.1875 13.671875 46.484375 
Q 19.53125 50.78125 22.65625 55.46875 
Q 14.84375 55.46875 7.8125 55.078125 
L 7.8125 62.109375 
Q 14.453125 61.71875 27.734375 61.71875 
z
M 62.109375 49.609375 
Q 65.625 26.5625 71.875 17.578125 
Q 75.78125 26.5625 77.140625 35.734375 
Q 78.515625 44.921875 78.90625 53.515625 
L 63.671875 53.515625 
L 62.109375 49.609375 
z
M 22.65625 15.625 
Q 27.34375 14.453125 35.546875 12.5 
Q 38.671875 16.40625 41.40625 23.828125 
L 26.953125 23.828125 
Q 25 19.921875 22.65625 15.625 
z
M 51.953125 75.390625 
Q 50 72.265625 48.828125 69.53125 
Q 47.65625 66.796875 45.703125 62.890625 
Q 42.578125 64.453125 39.453125 65.234375 
Q 42.578125 70.3125 45.3125 78.125 
Q 49.21875 76.171875 51.953125 75.390625 
z
M 40.234375 52.734375 
Q 45.3125 47.65625 50 42.578125 
Q 47.65625 40.625 44.921875 37.890625 
Q 39.453125 44.53125 35.9375 48.4375 
Q 38.28125 50.390625 40.234375 52.734375 
z
M 14.453125 78.125 
Q 19.921875 72.65625 23.4375 67.1875 
L 17.578125 63.671875 
Q 14.84375 69.140625 9.375 73.828125 
Q 12.890625 76.171875 14.453125 78.125 
z
" id="SimHei-25968"/>
     </defs>
     <g transform="translate(22.55125 199.29875)rotate(-90)scale(0.14 -0.14)">
      <use xlink:href="#SimHei-19987"/>
      <use x="100" xlink:href="#SimHei-23478"/>
      <use x="200" xlink:href="#SimHei-20998"/>
      <use x="300" xlink:href="#SimHei-25968"/>
     </g>
    </g>
   </g>
   <g id="patch_23">
    <path d="M 45.30125 314.26625 
L 45.30125 28.33125 
" style="fill:none;stroke:#808080;stroke-linecap:square;stroke-linejoin:miter;stroke-width:0.8;"/>
   </g>
   <g id="patch_24">
    <path d="M 450 314.26625 
L 450 28.33125 
" style="fill:none;stroke:#808080;stroke-linecap:square;stroke-linejoin:miter;stroke-width:0.8;"/>
   </g>
   <g id="patch_25">
    <path d="M 45.30125 314.26625 
L 450 314.26625 
" style="fill:none;stroke:#808080;stroke-linecap:square;stroke-linejoin:miter;stroke-width:0.8;"/>
   </g>
   <g id="patch_26">
    <path d="M 45.30125 28.33125 
L 450 28.33125 
" style="fill:none;stroke:#808080;stroke-linecap:square;stroke-linejoin:miter;stroke-width:0.8;"/>
   </g>
   <g id="text_13">
    <!-- 7.5 -->
    <defs>
     <path d="M 17.71875 -1.375 
L 35.75 53.265625 
L 22.015625 53.265625 
Q 13.96875 53.265625 9.90625 51.171875 
Q 7.078125 49.703125 5.21875 45.65625 
L 3.375 45.65625 
L 8.15625 66.21875 
L 47.609375 66.21875 
L 25.390625 -1.375 
z
" id="TimesNewRomanPS-BoldMT-55"/>
     <path d="M 12.5 15.046875 
Q 15.921875 15.046875 18.28125 12.640625 
Q 20.65625 10.25 20.65625 6.890625 
Q 20.65625 3.515625 18.265625 1.140625 
Q 15.875 -1.21875 12.5 -1.21875 
Q 9.125 -1.21875 6.75 1.140625 
Q 4.390625 3.515625 4.390625 6.890625 
Q 4.390625 10.25 6.75 12.640625 
Q 9.125 15.046875 12.5 15.046875 
z
" id="TimesNewRomanPS-BoldMT-46"/>
     <path d="M 15.234375 66.21875 
L 46.234375 66.21875 
L 41.3125 53.609375 
L 15.234375 53.609375 
L 12.75 47.015625 
Q 29.59375 46.390625 38.671875 38.625 
Q 46.140625 32.234375 46.140625 22.703125 
Q 46.140625 16.609375 42.671875 10.765625 
Q 39.203125 4.9375 32.90625 1.78125 
Q 26.609375 -1.375 19.09375 -1.375 
Q 10.984375 -1.375 6.640625 1.65625 
Q 3.609375 3.8125 3.609375 6.546875 
Q 3.609375 8.640625 5.1875 10.25 
Q 6.78125 11.859375 8.890625 11.859375 
Q 10.796875 11.859375 12.75 11.078125 
Q 14.703125 10.296875 19.4375 6.984375 
Q 22.40625 4.9375 24.5625 4.15625 
Q 26.078125 3.5625 27.984375 3.5625 
Q 31.984375 3.5625 34.78125 6.484375 
Q 37.59375 9.421875 37.59375 13.53125 
Q 37.59375 22.125 29 27.484375 
Q 20.40625 32.859375 7.328125 32.859375 
Q 6 32.859375 3.375 32.8125 
z
" id="TimesNewRomanPS-BoldMT-53"/>
    </defs>
    <g transform="translate(65.736397 114.385412)scale(0.09 -0.09)">
     <use xlink:href="#TimesNewRomanPS-BoldMT-55"/>
     <use x="50" xlink:href="#TimesNewRomanPS-BoldMT-46"/>
     <use x="75" xlink:href="#TimesNewRomanPS-BoldMT-53"/>
    </g>
   </g>
   <g id="text_14">
    <!-- 7.3 -->
    <defs>
     <path d="M 14.796875 33.203125 
L 14.796875 34.90625 
Q 20.359375 36.53125 22.5 37.921875 
Q 24.65625 39.3125 26.21875 42.15625 
Q 27.78125 45.015625 27.78125 47.953125 
Q 27.78125 52 24.828125 54.90625 
Q 21.875 57.8125 17.484375 57.8125 
Q 10.640625 57.8125 5.859375 50.59375 
L 4.046875 51.21875 
Q 7.5625 59.375 13.0625 63.46875 
Q 18.5625 67.578125 25.296875 67.578125 
Q 32.171875 67.578125 36.640625 63.375 
Q 41.109375 59.1875 41.109375 53.5625 
Q 41.109375 49.90625 39.03125 46.5 
Q 36.96875 43.109375 32.515625 40.53125 
Q 38.234375 37.75 41.234375 33.671875 
Q 44.234375 29.59375 44.234375 23.4375 
Q 44.234375 13.09375 36.734375 5.828125 
Q 29.25 -1.421875 16.65625 -1.421875 
Q 8.25 -1.421875 4.390625 1.375 
Q 1.609375 3.328125 1.609375 6.390625 
Q 1.609375 8.640625 3.21875 10.21875 
Q 4.828125 11.8125 6.9375 11.8125 
Q 8.546875 11.8125 9.96875 11.140625 
Q 10.75 10.75 15.5 6.859375 
Q 20.265625 2.984375 24.421875 2.984375 
Q 28.03125 2.984375 30.609375 5.828125 
Q 33.203125 8.6875 33.203125 13.09375 
Q 33.203125 19.78125 28.515625 25.421875 
Q 23.828125 31.0625 14.796875 33.203125 
z
" id="TimesNewRomanPS-BoldMT-51"/>
    </defs>
    <g transform="translate(142.383887 119.58423)scale(0.09 -0.09)">
     <use xlink:href="#TimesNewRomanPS-BoldMT-55"/>
     <use x="50" xlink:href="#TimesNewRomanPS-BoldMT-46"/>
     <use x="75" xlink:href="#TimesNewRomanPS-BoldMT-51"/>
    </g>
   </g>
   <g id="text_15">
    <!-- 8.2 -->
    <g transform="translate(219.031378 96.189548)scale(0.09 -0.09)">
     <use xlink:href="#TimesNewRomanPS-BoldMT-56"/>
     <use x="50" xlink:href="#TimesNewRomanPS-BoldMT-46"/>
     <use x="75" xlink:href="#TimesNewRomanPS-BoldMT-50"/>
    </g>
   </g>
   <g id="text_16">
    <!-- 7.2 -->
    <g transform="translate(295.678868 122.183639)scale(0.09 -0.09)">
     <use xlink:href="#TimesNewRomanPS-BoldMT-55"/>
     <use x="50" xlink:href="#TimesNewRomanPS-BoldMT-46"/>
     <use x="75" xlink:href="#TimesNewRomanPS-BoldMT-50"/>
    </g>
   </g>
   <g id="text_17">
    <!-- 7.7 -->
    <g transform="translate(372.326359 109.186594)scale(0.09 -0.09)">
     <use xlink:href="#TimesNewRomanPS-BoldMT-55"/>
     <use x="50" xlink:href="#TimesNewRomanPS-BoldMT-46"/>
     <use x="75" xlink:href="#TimesNewRomanPS-BoldMT-55"/>
    </g>
   </g>
   <g id="text_18">
    <!-- 6.0 -->
    <g transform="translate(81.065895 153.376548)scale(0.09 -0.09)">
     <use xlink:href="#TimesNewRomanPS-BoldMT-54"/>
     <use x="50" xlink:href="#TimesNewRomanPS-BoldMT-46"/>
     <use x="75" xlink:href="#TimesNewRomanPS-BoldMT-48"/>
    </g>
   </g>
   <g id="text_19">
    <!-- 5.2 -->
    <g transform="translate(157.713385 174.171821)scale(0.09 -0.09)">
     <use xlink:href="#TimesNewRomanPS-BoldMT-53"/>
     <use x="50" xlink:href="#TimesNewRomanPS-BoldMT-46"/>
     <use x="75" xlink:href="#TimesNewRomanPS-BoldMT-50"/>
    </g>
   </g>
   <g id="text_20">
    <!-- 7.2 -->
    <g transform="translate(234.360876 122.183639)scale(0.09 -0.09)">
     <use xlink:href="#TimesNewRomanPS-BoldMT-55"/>
     <use x="50" xlink:href="#TimesNewRomanPS-BoldMT-46"/>
     <use x="75" xlink:href="#TimesNewRomanPS-BoldMT-50"/>
    </g>
   </g>
   <g id="text_21">
    <!-- 6.5 -->
    <g transform="translate(311.008366 140.379503)scale(0.09 -0.09)">
     <use xlink:href="#TimesNewRomanPS-BoldMT-54"/>
     <use x="50" xlink:href="#TimesNewRomanPS-BoldMT-46"/>
     <use x="75" xlink:href="#TimesNewRomanPS-BoldMT-53"/>
    </g>
   </g>
   <g id="text_22">
    <!-- 6.4 -->
    <g transform="translate(387.655857 142.978912)scale(0.09 -0.09)">
     <use xlink:href="#TimesNewRomanPS-BoldMT-54"/>
     <use x="50" xlink:href="#TimesNewRomanPS-BoldMT-46"/>
     <use x="75" xlink:href="#TimesNewRomanPS-BoldMT-52"/>
    </g>
   </g>
   <g id="text_23">
    <!-- 5.8 -->
    <g transform="translate(96.395393 158.575366)scale(0.09 -0.09)">
     <use xlink:href="#TimesNewRomanPS-BoldMT-53"/>
     <use x="50" xlink:href="#TimesNewRomanPS-BoldMT-46"/>
     <use x="75" xlink:href="#TimesNewRomanPS-BoldMT-56"/>
    </g>
   </g>
   <g id="text_24">
    <!-- 4.0 -->
    <g transform="translate(173.042884 205.36473)scale(0.09 -0.09)">
     <use xlink:href="#TimesNewRomanPS-BoldMT-52"/>
     <use x="50" xlink:href="#TimesNewRomanPS-BoldMT-46"/>
     <use x="75" xlink:href="#TimesNewRomanPS-BoldMT-48"/>
    </g>
   </g>
   <g id="text_25">
    <!-- 4.7 -->
    <g transform="translate(249.690374 187.168866)scale(0.09 -0.09)">
     <use xlink:href="#TimesNewRomanPS-BoldMT-52"/>
     <use x="50" xlink:href="#TimesNewRomanPS-BoldMT-46"/>
     <use x="75" xlink:href="#TimesNewRomanPS-BoldMT-55"/>
    </g>
   </g>
   <g id="text_26">
    <!-- 4.7 -->
    <g transform="translate(326.337865 187.168866)scale(0.09 -0.09)">
     <use xlink:href="#TimesNewRomanPS-BoldMT-52"/>
     <use x="50" xlink:href="#TimesNewRomanPS-BoldMT-46"/>
     <use x="75" xlink:href="#TimesNewRomanPS-BoldMT-55"/>
    </g>
   </g>
   <g id="text_27">
    <!-- 4.9 -->
    <defs>
     <path d="M 3.078125 -1.375 
L 3.078125 0 
Q 11.1875 1.859375 16.828125 5.46875 
Q 22.46875 9.078125 25.75 14.40625 
Q 29.046875 19.734375 30.375 26.65625 
Q 27.34375 25.09375 25.21875 24.484375 
Q 23.09375 23.875 20.75 23.875 
Q 13.234375 23.875 8.21875 29.296875 
Q 3.21875 34.71875 3.21875 44.140625 
Q 3.21875 50.6875 5.921875 56.125 
Q 8.640625 61.578125 13.671875 64.578125 
Q 18.703125 67.578125 24.125 67.578125 
Q 29.9375 67.578125 35.109375 64.25 
Q 40.28125 60.9375 43.359375 54.640625 
Q 46.4375 48.34375 46.4375 40.28125 
Q 46.4375 29.828125 41.421875 20.25 
Q 36.421875 10.6875 26.515625 4.90625 
Q 16.609375 -0.875 3.078125 -1.375 
z
M 31.109375 30.765625 
Q 31.59375 36.234375 31.59375 40.375 
Q 31.59375 49.265625 29.546875 56.9375 
Q 28.375 61.1875 26.078125 63.1875 
Q 24.859375 64.265625 22.90625 64.265625 
Q 20.453125 64.265625 19.09375 62.15625 
Q 17.1875 59.28125 17.1875 51.171875 
Q 17.1875 37.640625 20.40625 32.515625 
Q 22.515625 29.203125 26.078125 29.203125 
Q 27.984375 29.203125 31.109375 30.765625 
z
" id="TimesNewRomanPS-BoldMT-57"/>
    </defs>
    <g transform="translate(402.985355 181.970048)scale(0.09 -0.09)">
     <use xlink:href="#TimesNewRomanPS-BoldMT-52"/>
     <use x="50" xlink:href="#TimesNewRomanPS-BoldMT-46"/>
     <use x="75" xlink:href="#TimesNewRomanPS-BoldMT-57"/>
    </g>
   </g>
   <g id="text_28">
    <!-- 5.1 -->
    <g transform="translate(111.724891 176.77123)scale(0.09 -0.09)">
     <use xlink:href="#TimesNewRomanPS-BoldMT-53"/>
     <use x="50" xlink:href="#TimesNewRomanPS-BoldMT-46"/>
     <use x="75" xlink:href="#TimesNewRomanPS-BoldMT-49"/>
    </g>
   </g>
   <g id="text_29">
    <!-- 3.8 -->
    <g transform="translate(188.372382 210.563548)scale(0.09 -0.09)">
     <use xlink:href="#TimesNewRomanPS-BoldMT-51"/>
     <use x="50" xlink:href="#TimesNewRomanPS-BoldMT-46"/>
     <use x="75" xlink:href="#TimesNewRomanPS-BoldMT-56"/>
    </g>
   </g>
   <g id="text_30">
    <!-- 3.9 -->
    <g transform="translate(265.019872 207.964139)scale(0.09 -0.09)">
     <use xlink:href="#TimesNewRomanPS-BoldMT-51"/>
     <use x="50" xlink:href="#TimesNewRomanPS-BoldMT-46"/>
     <use x="75" xlink:href="#TimesNewRomanPS-BoldMT-57"/>
    </g>
   </g>
   <g id="text_31">
    <!-- 5.9 -->
    <g transform="translate(341.667363 155.975957)scale(0.09 -0.09)">
     <use xlink:href="#TimesNewRomanPS-BoldMT-53"/>
     <use x="50" xlink:href="#TimesNewRomanPS-BoldMT-46"/>
     <use x="75" xlink:href="#TimesNewRomanPS-BoldMT-57"/>
    </g>
   </g>
   <g id="text_32">
    <!-- 4.6 -->
    <g transform="translate(418.314853 189.768276)scale(0.09 -0.09)">
     <use xlink:href="#TimesNewRomanPS-BoldMT-52"/>
     <use x="50" xlink:href="#TimesNewRomanPS-BoldMT-46"/>
     <use x="75" xlink:href="#TimesNewRomanPS-BoldMT-54"/>
    </g>
   </g>
   <g id="text_33">
    <!-- 不同方法生成效果的人工评估 -->
    <defs>
     <path d="M 93.359375 69.53125 
Q 86.328125 69.921875 81.25 69.921875 
L 58.203125 69.921875 
Q 55.46875 64.453125 51.5625 57.8125 
L 51.5625 8.984375 
Q 51.5625 1.171875 51.953125 -8.59375 
L 43.359375 -8.59375 
Q 43.75 0.78125 43.75 8.984375 
L 43.75 47.265625 
Q 31.640625 30.46875 10.9375 16.40625 
Q 7.8125 21.09375 5.078125 23.046875 
Q 12.890625 26.5625 25.78125 38.078125 
Q 38.671875 49.609375 49.609375 69.921875 
L 23.828125 69.921875 
Q 16.40625 69.921875 8.203125 69.53125 
L 8.203125 77.34375 
Q 19.921875 76.953125 26.171875 76.953125 
L 80.859375 76.953125 
Q 85.9375 76.953125 93.359375 77.34375 
z
M 85.15625 17.578125 
Q 77.734375 26.953125 58.59375 46.484375 
Q 61.71875 49.21875 63.671875 51.953125 
Q 73.046875 43.359375 79.6875 36.90625 
Q 86.328125 30.46875 92.1875 24.21875 
Q 88.28125 21.09375 85.15625 17.578125 
z
" id="SimHei-19981"/>
     <path d="M 91.015625 76.953125 
Q 90.234375 71.09375 90.234375 62.109375 
L 90.234375 -0.78125 
Q 90.234375 -6.25 86.328125 -7.609375 
Q 82.421875 -8.984375 73.828125 -9.765625 
Q 73.828125 -6.25 70.703125 -0.78125 
Q 76.953125 -0.78125 79.6875 -0.1875 
Q 82.421875 0.390625 82.421875 3.125 
L 82.421875 69.53125 
L 17.96875 69.53125 
L 17.96875 -9.375 
L 8.984375 -9.375 
Q 9.375 -3.90625 9.765625 3.125 
L 9.765625 62.109375 
Q 9.765625 71.484375 9.375 76.953125 
L 91.015625 76.953125 
z
M 68.359375 39.84375 
Q 67.578125 35.546875 67.578125 26.5625 
Q 67.578125 17.96875 68.359375 11.328125 
L 31.640625 11.328125 
Q 32.03125 18.359375 32.03125 27.34375 
Q 32.03125 36.328125 31.640625 39.84375 
L 68.359375 39.84375 
z
M 64.0625 58.59375 
Q 71.875 58.59375 75.390625 58.984375 
L 75.390625 51.171875 
Q 71.484375 51.5625 63.671875 51.5625 
L 38.28125 51.5625 
Q 28.90625 51.5625 25 51.171875 
L 25 58.984375 
Q 29.296875 58.59375 38.671875 58.59375 
z
M 60.546875 17.96875 
L 60.546875 33.59375 
L 39.453125 33.59375 
L 39.453125 17.96875 
z
" id="SimHei-21516"/>
     <path d="M 6.640625 62.109375 
Q 12.890625 61.71875 20.3125 61.71875 
L 78.515625 61.71875 
Q 87.890625 61.71875 93.75 62.109375 
L 93.75 54.296875 
Q 88.671875 54.6875 79.6875 54.6875 
L 39.453125 54.6875 
Q 39.453125 50.390625 39.0625 39.0625 
L 82.8125 39.0625 
Q 82.03125 33.984375 81.25 24.21875 
L 78.90625 2.734375 
Q 78.125 -4.296875 72.265625 -6.4375 
Q 66.40625 -8.59375 55.078125 -9.765625 
Q 54.6875 -4.6875 51.953125 -0.78125 
Q 60.9375 -1.171875 65.625 0 
Q 70.3125 1.171875 71.484375 6.640625 
L 73.828125 32.03125 
L 38.671875 32.03125 
Q 37.109375 21.09375 33.78125 13.671875 
Q 30.46875 6.25 24.609375 0 
Q 18.75 -6.25 12.890625 -10.9375 
Q 11.328125 -8.59375 5.859375 -5.46875 
Q 10.9375 -2.734375 16.59375 3.125 
Q 22.265625 8.984375 25.96875 16.40625 
Q 29.6875 23.828125 30.65625 32.8125 
Q 31.640625 41.796875 31.640625 54.6875 
L 20.703125 54.6875 
Q 12.109375 54.6875 6.640625 54.296875 
z
M 48.046875 63.671875 
Q 44.53125 71.484375 40.234375 78.125 
Q 43.75 80.078125 47.265625 82.421875 
Q 51.5625 75.78125 55.859375 67.96875 
Q 51.953125 66.40625 48.046875 63.671875 
z
" id="SimHei-26041"/>
     <path d="M 94.921875 -4.6875 
Q 91.40625 -6.640625 87.890625 -9.765625 
Q 85.15625 -4.6875 83.203125 -1.953125 
Q 70.703125 -2.734375 56.046875 -4.09375 
Q 41.40625 -5.46875 36.328125 -7.03125 
Q 35.15625 -2.34375 33.203125 1.171875 
Q 38.28125 2.734375 44.140625 11.328125 
Q 50 19.921875 54.6875 32.8125 
L 43.75 32.8125 
Q 36.71875 32.8125 30.46875 32.421875 
L 30.46875 39.453125 
Q 36.71875 39.0625 44.140625 39.0625 
L 58.203125 39.0625 
L 58.203125 56.25 
L 49.21875 56.25 
Q 41.796875 56.25 36.328125 55.859375 
L 36.328125 62.890625 
Q 42.578125 62.5 48.828125 62.5 
L 58.203125 62.5 
Q 58.203125 73.4375 57.8125 80.46875 
L 66.40625 80.46875 
Q 66.015625 74.609375 66.015625 62.5 
L 77.734375 62.5 
Q 83.59375 62.5 89.84375 62.890625 
L 89.84375 55.859375 
Q 83.59375 56.25 78.515625 56.25 
L 66.015625 56.25 
L 66.015625 39.0625 
L 80.078125 39.0625 
Q 87.109375 39.0625 94.140625 39.453125 
L 94.140625 32.421875 
Q 87.109375 32.8125 80.078125 32.8125 
L 60.15625 32.8125 
L 64.0625 30.46875 
Q 61.71875 27.734375 56.640625 18.75 
Q 51.5625 9.765625 45.3125 1.5625 
Q 62.5 2.34375 79.296875 3.515625 
Q 74.609375 10.546875 69.53125 16.015625 
Q 72.65625 18.359375 75.390625 21.09375 
Q 82.421875 12.5 94.921875 -4.6875 
z
M 4.6875 -3.90625 
Q 10.15625 1.5625 15.8125 9.765625 
Q 21.484375 17.96875 26.953125 26.953125 
Q 28.90625 23.4375 32.421875 21.484375 
Q 28.90625 16.796875 23.4375 7.609375 
Q 17.96875 -1.5625 13.28125 -9.765625 
Q 10.15625 -6.640625 4.6875 -3.90625 
z
M 10.546875 53.515625 
Q 18.75 48.4375 28.125 41.40625 
Q 24.609375 39.0625 21.875 35.15625 
Q 14.453125 41.796875 5.46875 47.65625 
Q 8.203125 50 10.546875 53.515625 
z
M 16.40625 76.5625 
Q 24.21875 71.484375 32.8125 64.453125 
Q 29.6875 62.109375 26.953125 58.203125 
Q 19.53125 65.234375 11.328125 70.703125 
Q 14.0625 73.4375 16.40625 76.5625 
z
" id="SimHei-27861"/>
     <path d="M 29.296875 72.65625 
Q 26.953125 69.921875 25.390625 65.8125 
Q 23.828125 61.71875 22.265625 57.8125 
L 45.703125 57.8125 
L 45.703125 71.484375 
Q 45.703125 76.5625 45.3125 81.25 
L 54.296875 81.25 
Q 53.90625 76.953125 53.90625 71.484375 
L 53.90625 57.8125 
L 71.09375 57.8125 
Q 77.34375 57.8125 85.15625 58.203125 
L 85.15625 50.390625 
Q 77.734375 50.78125 71.09375 50.78125 
L 53.90625 50.78125 
L 53.90625 33.203125 
L 66.015625 33.203125 
Q 71.484375 33.203125 79.296875 33.59375 
L 79.296875 25.78125 
Q 71.875 26.171875 66.015625 26.171875 
L 53.90625 26.171875 
L 53.90625 2.734375 
L 77.34375 2.734375 
Q 83.59375 2.734375 91.796875 3.125 
L 91.796875 -4.296875 
Q 83.984375 -3.90625 77.34375 -3.90625 
L 21.09375 -3.90625 
Q 14.453125 -3.90625 7.421875 -4.296875 
L 7.421875 3.125 
Q 14.84375 2.734375 21.09375 2.734375 
L 45.703125 2.734375 
L 45.703125 26.171875 
L 31.25 26.171875 
Q 25.78125 26.171875 19.921875 25.78125 
L 19.921875 33.59375 
Q 25.78125 33.203125 31.25 33.203125 
L 45.703125 33.203125 
L 45.703125 50.78125 
L 19.53125 50.78125 
Q 16.015625 42.578125 12.5 36.71875 
Q 8.203125 38.671875 3.125 39.453125 
Q 7.421875 44.140625 12.296875 54.484375 
Q 17.1875 64.84375 19.140625 76.5625 
L 29.296875 72.65625 
z
" id="SimHei-29983"/>
     <path d="M 54.6875 62.5 
Q 54.296875 73.828125 53.90625 81.640625 
Q 58.59375 81.25 62.890625 80.859375 
Q 62.109375 75.78125 62.5 62.5 
L 73.828125 62.5 
Q 82.03125 62.5 91.796875 62.890625 
L 91.796875 55.46875 
Q 81.640625 55.859375 73.828125 55.859375 
L 62.890625 55.859375 
Q 63.28125 41.015625 67.96875 23.4375 
Q 75.390625 34.765625 79.6875 49.609375 
Q 83.59375 46.484375 88.671875 44.140625 
Q 85.546875 40.625 81.640625 32.421875 
Q 77.734375 24.21875 71.484375 15.234375 
Q 75 8.203125 79.09375 4.09375 
Q 83.203125 0 84.765625 0.578125 
Q 86.328125 1.171875 87.890625 14.0625 
Q 91.796875 10.9375 96.09375 9.375 
Q 93.359375 -6.640625 90.03125 -8.390625 
Q 86.71875 -10.15625 82.03125 -8.390625 
Q 77.34375 -6.640625 73.234375 -1.75 
Q 69.140625 3.125 66.40625 8.984375 
Q 57.03125 -1.171875 42.578125 -10.15625 
Q 40.625 -6.640625 36.71875 -3.90625 
Q 44.53125 -0.390625 51.75 5.46875 
Q 58.984375 11.328125 62.5 16.40625 
Q 59.765625 23.828125 57.8125 34.5625 
Q 55.859375 45.3125 55.46875 55.859375 
L 21.875 55.859375 
L 21.875 42.1875 
L 47.265625 42.1875 
Q 46.484375 35.15625 46.09375 27.734375 
L 44.921875 12.109375 
Q 44.53125 4.6875 40.8125 3.125 
Q 37.109375 1.5625 28.125 0.78125 
Q 27.734375 4.296875 25 9.375 
Q 34.765625 8.984375 36.328125 10.546875 
Q 37.890625 12.109375 38.28125 19.53125 
L 39.0625 35.15625 
L 21.875 35.15625 
Q 21.875 19.921875 19.53125 9.765625 
Q 17.1875 -0.390625 10.9375 -8.984375 
Q 6.640625 -5.859375 3.125 -4.6875 
Q 8.203125 1.5625 10.15625 7.21875 
Q 12.109375 12.890625 13.078125 19.53125 
Q 14.0625 26.171875 14.25 38.28125 
Q 14.453125 50.390625 14.0625 62.5 
L 54.6875 62.5 
z
M 74.21875 81.640625 
Q 82.03125 75.390625 87.890625 69.140625 
Q 84.375 66.40625 81.640625 63.671875 
Q 76.953125 69.921875 69.140625 76.5625 
Q 71.875 78.90625 74.21875 81.640625 
z
" id="SimHei-25104"/>
     <path d="M 54.6875 37.5 
Q 53.125 41.796875 50 45.3125 
Q 54.6875 52.34375 58.59375 62.890625 
Q 62.5 73.4375 64.0625 82.8125 
Q 68.75 80.46875 74.21875 79.296875 
Q 72.265625 77.34375 70.3125 73.234375 
Q 68.359375 69.140625 66.015625 62.890625 
Q 90.625 62.890625 96.09375 63.28125 
L 96.09375 56.640625 
Q 91.40625 57.03125 85.546875 57.03125 
Q 85.15625 45.703125 82.8125 33.390625 
Q 80.46875 21.09375 75.390625 12.5 
Q 76.5625 8.984375 83 4.296875 
Q 89.453125 -0.390625 96.484375 -2.734375 
Q 91.796875 -5.46875 90.234375 -10.15625 
Q 83.59375 -6.640625 78.90625 -2.53125 
Q 74.21875 1.5625 70.3125 6.640625 
Q 65.234375 1.953125 59.953125 -1.75 
Q 54.6875 -5.46875 44.53125 -10.9375 
Q 42.578125 -6.640625 37.890625 -3.90625 
Q 42.96875 -3.125 51.953125 2.140625 
Q 60.9375 7.421875 65.625 12.5 
Q 62.5 19.140625 60.734375 26.171875 
Q 58.984375 33.203125 57.421875 42.1875 
z
M 17.1875 34.765625 
Q 23.828125 29.296875 30.078125 24.609375 
Q 33.203125 29.6875 34.375 37.5 
Q 38.28125 35.546875 42.1875 34.375 
Q 38.671875 25.390625 35.9375 19.53125 
L 46.875 8.59375 
Q 43.359375 5.859375 40.234375 2.734375 
Q 37.5 7.03125 31.640625 12.890625 
Q 28.515625 9.375 24.21875 4.875 
Q 19.921875 0.390625 10.9375 -6.640625 
Q 7.8125 -2.734375 3.90625 -0.390625 
Q 8.984375 1.953125 14.84375 6.25 
Q 20.703125 10.546875 26.171875 18.359375 
Q 20.703125 23.046875 13.28125 29.296875 
L 17.1875 34.765625 
z
M 63.671875 46.09375 
Q 64.0625 42.1875 65.8125 34.171875 
Q 67.578125 26.171875 70.703125 19.140625 
Q 74.609375 26.5625 76.359375 38.671875 
Q 78.125 50.78125 77.734375 57.03125 
L 64.0625 57.03125 
Q 60.9375 48.828125 58.203125 44.53125 
Q 60.9375 44.53125 63.671875 46.09375 
z
M 39.0625 65.625 
Q 44.921875 65.625 49.609375 66.015625 
L 49.609375 59.375 
Q 44.921875 59.765625 39.453125 59.765625 
L 15.625 59.765625 
Q 9.375 59.765625 4.296875 59.375 
L 4.296875 66.015625 
Q 9.375 65.625 15.625 65.625 
z
M 17.578125 57.03125 
Q 21.875 54.6875 25.390625 51.953125 
Q 23.828125 50.78125 20.3125 45.3125 
Q 16.40625 39.453125 10.546875 31.25 
Q 7.03125 33.59375 3.515625 35.546875 
Q 8.59375 40.234375 12.296875 46.484375 
Q 16.015625 52.734375 17.578125 57.03125 
z
M 38.671875 56.640625 
Q 41.015625 53.125 44.53125 48.4375 
Q 48.046875 43.75 50.78125 40.234375 
Q 47.265625 38.28125 44.140625 35.546875 
Q 36.328125 46.875 32.421875 51.953125 
Q 35.546875 53.515625 38.671875 56.640625 
z
M 28.515625 82.03125 
Q 31.640625 76.171875 33.984375 69.921875 
Q 30.46875 68.359375 26.5625 66.796875 
Q 24.21875 72.65625 21.09375 79.296875 
Q 24.609375 80.46875 28.515625 82.03125 
z
" id="SimHei-25928"/>
     <path d="M 46.484375 -8.203125 
Q 46.875 -1.171875 46.875 8.984375 
L 46.875 25 
L 45.3125 25 
Q 42.578125 19.921875 39.0625 15.625 
Q 35.546875 11.328125 31.046875 8 
Q 26.5625 4.6875 21.28125 1.5625 
Q 16.015625 -1.5625 10.546875 -3.90625 
Q 8.984375 0.390625 6.25 4.296875 
Q 10.9375 5.46875 15.234375 7.609375 
Q 19.53125 9.765625 23.828125 12.296875 
Q 28.125 14.84375 31.25 17.96875 
Q 34.375 21.09375 37.109375 25 
L 21.484375 25 
Q 15.625 25 7.03125 24.21875 
L 7.03125 32.03125 
Q 14.84375 31.25 21.484375 31.25 
L 46.875 31.25 
L 46.875 38.28125 
L 17.96875 38.28125 
Q 18.359375 47.65625 18.359375 58.984375 
Q 18.359375 70.3125 17.96875 78.125 
L 83.203125 78.125 
Q 82.8125 70.3125 82.8125 58.984375 
Q 82.8125 47.65625 83.203125 38.28125 
L 54.296875 38.28125 
L 54.296875 31.25 
L 78.90625 31.25 
Q 86.71875 31.25 92.578125 31.640625 
L 92.578125 24.21875 
Q 85.9375 25 79.6875 25 
L 64.453125 25 
Q 69.53125 16.796875 76.953125 12.5 
Q 84.375 8.203125 94.53125 5.859375 
Q 91.796875 2.34375 90.234375 -2.734375 
Q 76.953125 2.34375 69.140625 8.59375 
Q 61.328125 14.84375 57.421875 25 
L 54.296875 25 
L 54.296875 8.59375 
Q 54.296875 0 54.6875 -8.203125 
z
M 75.390625 60.546875 
L 75.390625 72.265625 
L 54.296875 72.265625 
L 54.296875 60.546875 
z
M 46.875 60.546875 
L 46.875 72.265625 
L 26.171875 72.265625 
L 26.171875 60.546875 
z
M 75.390625 44.140625 
L 75.390625 54.6875 
L 54.296875 54.6875 
L 54.296875 44.140625 
z
M 46.875 44.140625 
L 46.875 54.6875 
L 26.171875 54.6875 
L 26.171875 44.140625 
z
" id="SimHei-26524"/>
     <path d="M 32.8125 77.734375 
Q 30.859375 74.21875 27.34375 61.71875 
L 44.921875 61.71875 
Q 44.53125 55.078125 44.53125 44.921875 
L 44.53125 10.546875 
Q 44.53125 4.6875 44.921875 -6.25 
L 37.109375 -6.25 
L 37.109375 1.5625 
L 17.1875 1.5625 
L 17.1875 -7.03125 
L 9.375 -7.03125 
Q 9.765625 5.46875 9.765625 8.59375 
L 9.765625 44.53125 
Q 9.765625 55.078125 9.375 61.71875 
L 20.703125 61.71875 
Q 22.65625 70.703125 23.828125 80.46875 
Q 29.296875 78.515625 32.8125 77.734375 
z
M 91.015625 48.046875 
Q 90.625 24.21875 89.0625 2.734375 
Q 88.28125 -4.296875 81.640625 -6.640625 
Q 75 -8.984375 66.796875 -9.765625 
Q 66.40625 -5.46875 63.28125 -0.78125 
Q 71.09375 -1.171875 75.578125 -0.390625 
Q 80.078125 0.390625 81.25 3.125 
Q 82.421875 5.859375 83 19.140625 
Q 83.59375 32.421875 83.984375 56.25 
L 61.328125 56.25 
Q 58.203125 48.828125 52.34375 38.671875 
Q 49.609375 41.40625 45.703125 42.96875 
Q 49.21875 47.65625 52.34375 54.296875 
Q 55.46875 60.9375 57.8125 68.75 
Q 60.15625 76.5625 60.546875 80.859375 
Q 66.015625 78.515625 69.921875 77.34375 
Q 67.96875 74.21875 66.59375 70.5 
Q 65.234375 66.796875 63.671875 63.28125 
L 91.40625 63.28125 
Q 91.015625 55.078125 91.015625 48.046875 
z
M 37.109375 8.203125 
L 37.109375 28.90625 
L 17.1875 28.90625 
L 17.1875 8.203125 
z
M 37.109375 35.546875 
L 37.109375 55.078125 
L 17.1875 55.078125 
L 17.1875 35.546875 
z
M 67.96875 32.03125 
Q 70.3125 27.34375 73.4375 19.921875 
Q 70.703125 18.75 66.015625 16.015625 
Q 63.28125 23.4375 60.9375 28.703125 
Q 58.59375 33.984375 56.25 37.5 
Q 58.984375 39.0625 63.28125 41.40625 
z
" id="SimHei-30340"/>
     <path d="M 5.46875 -2.34375 
Q 20.703125 5.078125 29.296875 16.015625 
Q 37.890625 26.953125 41.203125 38.46875 
Q 44.53125 50 44.921875 59.953125 
Q 45.3125 69.921875 44.53125 80.859375 
Q 48.828125 80.46875 54.296875 80.078125 
Q 53.125 73.828125 53.125 67.1875 
Q 53.125 60.546875 53.90625 51.953125 
Q 54.6875 43.359375 65.03125 25.96875 
Q 75.390625 8.59375 95.3125 0 
Q 90.625 -4.6875 89.0625 -7.8125 
Q 61.71875 5.46875 50 40.234375 
Q 42.1875 9.375 12.109375 -8.984375 
Q 9.765625 -5.859375 5.46875 -2.34375 
z
" id="SimHei-20154"/>
     <path d="M 69.921875 73.046875 
Q 79.296875 73.046875 87.109375 73.4375 
L 87.109375 65.625 
Q 79.296875 66.015625 69.921875 66.015625 
L 53.90625 66.015625 
L 53.90625 4.296875 
L 79.296875 4.296875 
Q 88.28125 4.296875 95.703125 4.6875 
L 95.703125 -3.125 
Q 88.28125 -2.734375 79.6875 -2.734375 
L 19.140625 -2.734375 
Q 10.546875 -2.734375 4.296875 -3.125 
L 4.296875 4.6875 
Q 10.9375 4.296875 19.53125 4.296875 
L 45.3125 4.296875 
L 45.3125 66.015625 
L 29.6875 66.015625 
Q 19.53125 66.015625 12.109375 65.625 
L 12.109375 73.4375 
Q 19.53125 73.046875 29.6875 73.046875 
z
" id="SimHei-24037"/>
     <path d="M 92.1875 70.3125 
Q 84.375 70.703125 69.140625 70.703125 
L 69.140625 33.203125 
L 81.25 33.203125 
Q 89.84375 33.203125 96.484375 33.59375 
L 96.484375 26.171875 
Q 90.234375 26.5625 81.25 26.5625 
L 69.140625 26.5625 
L 69.140625 3.125 
Q 69.140625 -4.6875 69.53125 -10.546875 
L 60.9375 -10.546875 
Q 61.328125 -3.125 61.328125 3.125 
L 61.328125 26.5625 
L 48.046875 26.5625 
Q 41.015625 26.5625 34.765625 26.171875 
L 34.765625 33.59375 
Q 41.015625 33.203125 48.046875 33.203125 
L 61.328125 33.203125 
L 61.328125 70.703125 
Q 44.53125 70.703125 37.890625 70.3125 
L 37.890625 77.734375 
Q 44.53125 77.34375 51.5625 77.34375 
L 77.34375 77.34375 
Q 84.375 77.34375 92.1875 77.734375 
z
M 13.671875 3.515625 
Q 17.96875 6.25 17.96875 10.15625 
L 17.96875 44.921875 
Q 7.421875 44.921875 3.515625 44.53125 
L 3.515625 52.34375 
Q 7.421875 51.953125 12.890625 51.953125 
L 25.78125 51.953125 
Q 25.390625 44.140625 25.390625 36.328125 
L 25.390625 11.328125 
Q 29.6875 15.234375 35.546875 21.484375 
Q 37.109375 19.140625 39.84375 14.84375 
Q 32.8125 8.59375 28.3125 4.6875 
Q 23.828125 0.78125 19.53125 -3.90625 
Q 17.1875 0.390625 13.671875 3.515625 
z
M 75.390625 41.015625 
Q 81.25 53.515625 83.984375 63.28125 
Q 88.28125 62.109375 93.359375 60.15625 
Q 92.578125 59.375 89.0625 51.953125 
Q 85.546875 44.53125 82.8125 38.28125 
Q 78.90625 40.234375 75.390625 41.015625 
z
M 44.53125 62.5 
Q 51.171875 49.609375 53.90625 42.1875 
Q 49.21875 40.625 46.09375 38.671875 
Q 42.1875 51.5625 37.5 59.375 
Q 41.40625 60.546875 44.53125 62.5 
z
M 17.1875 81.640625 
Q 21.875 77.734375 30.859375 66.796875 
Q 27.34375 64.453125 24.609375 61.71875 
Q 20.3125 67.96875 11.71875 76.5625 
Q 14.0625 78.515625 17.1875 81.640625 
z
" id="SimHei-35780"/>
     <path d="M 57.8125 59.375 
L 57.8125 68.359375 
Q 57.8125 73.4375 57.03125 79.296875 
L 66.40625 79.296875 
Q 65.625 73.4375 65.625 68.75 
L 65.625 59.375 
L 80.078125 59.375 
Q 87.5 59.375 93.75 59.765625 
L 93.75 52.34375 
Q 88.28125 52.734375 80.078125 52.734375 
L 65.625 52.734375 
L 65.625 34.765625 
L 85.9375 34.765625 
Q 85.546875 23.828125 85.546875 12.890625 
Q 85.546875 2.34375 85.9375 -7.03125 
L 78.125 -7.03125 
L 78.125 0.390625 
L 45.703125 0.390625 
L 45.703125 -7.8125 
L 37.890625 -7.8125 
Q 38.28125 2.734375 38.28125 13.28125 
Q 38.28125 23.828125 37.890625 34.765625 
L 57.8125 34.765625 
L 57.8125 52.734375 
L 46.09375 52.734375 
Q 37.890625 52.734375 31.640625 52.34375 
L 31.640625 59.765625 
Q 37.890625 59.375 45.703125 59.375 
z
M 34.375 76.5625 
Q 30.859375 72.65625 25.390625 57.8125 
L 25.390625 10.546875 
Q 25.390625 -1.5625 25.78125 -8.203125 
L 17.1875 -8.203125 
Q 17.96875 -1.171875 17.96875 10.15625 
L 17.96875 45.703125 
Q 12.5 36.71875 7.8125 30.859375 
Q 6.640625 33.59375 3.125 37.890625 
Q 7.8125 43.359375 14.640625 55.46875 
Q 21.484375 67.578125 24.609375 80.46875 
Q 27.734375 78.90625 34.375 76.5625 
z
M 78.125 7.03125 
L 78.125 28.125 
L 45.703125 28.125 
L 45.703125 7.03125 
z
" id="SimHei-20272"/>
    </defs>
    <g transform="translate(156.650625 22.33125)scale(0.14 -0.14)">
     <use xlink:href="#SimHei-19981"/>
     <use x="100" xlink:href="#SimHei-21516"/>
     <use x="200" xlink:href="#SimHei-26041"/>
     <use x="300" xlink:href="#SimHei-27861"/>
     <use x="400" xlink:href="#SimHei-29983"/>
     <use x="500" xlink:href="#SimHei-25104"/>
     <use x="600" xlink:href="#SimHei-25928"/>
     <use x="700" xlink:href="#SimHei-26524"/>
     <use x="800" xlink:href="#SimHei-30340"/>
     <use x="900" xlink:href="#SimHei-20154"/>
     <use x="1000" xlink:href="#SimHei-24037"/>
     <use x="1100" xlink:href="#SimHei-35780"/>
     <use x="1200" xlink:href="#SimHei-20272"/>
    </g>
   </g>
   <g id="legend_1">
    <g id="patch_27">
     <path d="M 377.94375 92.8875 
L 443 92.8875 
Q 445 92.8875 445 90.8875 
L 445 35.33125 
Q 445 33.33125 443 33.33125 
L 377.94375 33.33125 
Q 375.94375 33.33125 375.94375 35.33125 
L 375.94375 90.8875 
Q 375.94375 92.8875 377.94375 92.8875 
z
" style="fill:#ffffff;opacity:0.8;stroke:#cccccc;stroke-linejoin:miter;"/>
    </g>
    <g id="patch_28">
     <path d="M 379.94375 44.33125 
L 399.94375 44.33125 
L 399.94375 37.33125 
L 379.94375 37.33125 
z
" style="fill:#1f3989;opacity:0.6;stroke:#6977aa;stroke-linejoin:miter;"/>
    </g>
    <g id="text_34">
     <!-- Kwoo -->
     <defs>
      <path d="M 41.65625 40.875 
L 64.9375 11.71875 
Q 69.875 5.5625 73.4375 3.375 
Q 76.03125 1.8125 78.90625 1.8125 
L 78.90625 0 
L 44.4375 0 
L 44.4375 1.8125 
Q 47.703125 2.09375 48.65625 2.828125 
Q 49.609375 3.5625 49.609375 4.640625 
Q 49.609375 6.6875 45.125 12.359375 
L 29.9375 31.453125 
L 27.484375 29.390625 
L 27.484375 11.328125 
Q 27.484375 6.15625 28.0625 4.875 
Q 28.65625 3.609375 30.3125 2.703125 
Q 31.984375 1.8125 35.640625 1.8125 
L 35.640625 0 
L 2.25 0 
L 2.25 1.8125 
L 4.4375 1.8125 
Q 7.328125 1.8125 9.078125 2.828125 
Q 10.359375 3.515625 11.03125 5.171875 
Q 11.578125 6.34375 11.578125 11.328125 
L 11.578125 54.890625 
Q 11.578125 59.96875 11.03125 61.234375 
Q 10.5 62.5 8.859375 63.453125 
Q 7.234375 64.40625 4.4375 64.40625 
L 2.25 64.40625 
L 2.25 66.21875 
L 35.203125 66.21875 
L 35.203125 64.40625 
Q 31.84375 64.40625 30.078125 63.421875 
Q 28.8125 62.75 28.078125 61.140625 
Q 27.484375 59.90625 27.484375 54.890625 
L 27.484375 34.28125 
L 52.046875 54.15625 
Q 57.171875 58.296875 57.171875 60.796875 
Q 57.171875 62.640625 55.078125 63.71875 
Q 54 64.265625 49.75 64.40625 
L 49.75 66.21875 
L 75.59375 66.21875 
L 75.59375 64.40625 
Q 72.125 64.15625 70.140625 63.15625 
Q 68.171875 62.15625 61.03125 56.390625 
z
" id="TimesNewRomanPS-BoldMT-75"/>
      <path d="M 48.640625 -1.375 
L 36.140625 32.125 
L 23.875 -1.375 
L 21.34375 -1.375 
L 9.1875 31.734375 
Q 6.453125 39.3125 4.546875 41.609375 
Q 3.328125 43.171875 0.828125 43.84375 
L 0.828125 45.65625 
L 23.875 45.65625 
L 23.875 43.84375 
Q 21.53125 43.84375 20.65625 43.15625 
Q 19.78125 42.484375 19.78125 41.609375 
Q 19.78125 40.765625 21.34375 36.625 
L 28.03125 18.796875 
L 34.46875 36.625 
L 33.984375 37.796875 
Q 32.515625 41.453125 31.421875 42.453125 
Q 30.328125 43.453125 28.03125 43.84375 
L 28.03125 45.65625 
L 51.421875 45.65625 
L 51.421875 43.84375 
Q 48.6875 43.703125 47.953125 43.09375 
Q 47.21875 42.484375 47.21875 41.359375 
Q 47.21875 40.28125 48.640625 36.625 
L 55.078125 18.796875 
L 60.9375 35.203125 
Q 62.203125 38.71875 62.203125 39.984375 
Q 62.203125 41.890625 61.28125 42.765625 
Q 60.359375 43.65625 57.671875 43.84375 
L 57.671875 45.65625 
L 71.1875 45.65625 
L 71.1875 43.84375 
Q 68.953125 43.5625 67.625 42.265625 
Q 66.3125 40.96875 64.203125 34.90625 
L 51.421875 -1.375 
z
" id="TimesNewRomanPS-BoldMT-119"/>
      <path d="M 24.90625 47.015625 
Q 30.859375 47.015625 35.984375 43.9375 
Q 41.109375 40.875 43.765625 35.203125 
Q 46.4375 29.546875 46.4375 22.796875 
Q 46.4375 13.09375 41.5 6.546875 
Q 35.546875 -1.375 25.046875 -1.375 
Q 14.75 -1.375 9.171875 5.859375 
Q 3.609375 13.09375 3.609375 22.609375 
Q 3.609375 32.421875 9.296875 39.71875 
Q 14.984375 47.015625 24.90625 47.015625 
z
M 25.09375 43.5625 
Q 22.609375 43.5625 20.828125 41.671875 
Q 19.046875 39.796875 18.484375 34.25 
Q 17.921875 28.71875 17.921875 18.84375 
Q 17.921875 13.625 18.609375 9.078125 
Q 19.140625 5.609375 20.890625 3.796875 
Q 22.65625 2 24.90625 2 
Q 27.09375 2 28.5625 3.21875 
Q 30.46875 4.890625 31.109375 7.859375 
Q 32.078125 12.5 32.078125 26.609375 
Q 32.078125 34.90625 31.140625 38 
Q 30.21875 41.109375 28.421875 42.53125 
Q 27.15625 43.5625 25.09375 43.5625 
z
" id="TimesNewRomanPS-BoldMT-111"/>
     </defs>
     <g transform="translate(407.94375 44.33125)scale(0.1 -0.1)">
      <use xlink:href="#TimesNewRomanPS-BoldMT-75"/>
      <use x="77.783203" xlink:href="#TimesNewRomanPS-BoldMT-119"/>
      <use x="150" xlink:href="#TimesNewRomanPS-BoldMT-111"/>
      <use x="200" xlink:href="#TimesNewRomanPS-BoldMT-111"/>
     </g>
    </g>
    <g id="patch_29">
     <path d="M 379.94375 58.470312 
L 399.94375 58.470312 
L 399.94375 51.470312 
L 379.94375 51.470312 
z
" style="fill:#528edd;opacity:0.6;stroke:#bed9fa;stroke-linejoin:miter;"/>
    </g>
    <g id="text_35">
     <!-- Norm -->
     <defs>
      <path d="M 24.90625 66.21875 
L 57.5625 25.140625 
L 57.5625 53.609375 
Q 57.5625 59.578125 55.859375 61.671875 
Q 53.515625 64.5 48 64.40625 
L 48 66.21875 
L 69.875 66.21875 
L 69.875 64.40625 
Q 65.671875 63.875 64.234375 63.015625 
Q 62.796875 62.15625 61.984375 60.21875 
Q 61.1875 58.296875 61.1875 53.609375 
L 61.1875 -1.515625 
L 59.515625 -1.515625 
L 14.75 53.609375 
L 14.75 11.53125 
Q 14.75 5.8125 17.359375 3.8125 
Q 19.96875 1.8125 23.34375 1.8125 
L 24.90625 1.8125 
L 24.90625 0 
L 1.421875 0 
L 1.421875 1.8125 
Q 6.890625 1.859375 9.03125 4.046875 
Q 11.1875 6.25 11.1875 11.53125 
L 11.1875 58.25 
L 9.765625 60.015625 
Q 7.671875 62.640625 6.046875 63.46875 
Q 4.4375 64.3125 1.421875 64.40625 
L 1.421875 66.21875 
z
" id="TimesNewRomanPS-BoldMT-78"/>
      <path d="M 22.3125 45.65625 
L 22.3125 35.296875 
Q 26.859375 42.390625 30.265625 44.703125 
Q 33.6875 47.015625 36.859375 47.015625 
Q 39.59375 47.015625 41.234375 45.328125 
Q 42.875 43.65625 42.875 40.578125 
Q 42.875 37.3125 41.28125 35.5 
Q 39.703125 33.6875 37.453125 33.6875 
Q 34.859375 33.6875 32.953125 35.34375 
Q 31.0625 37.015625 30.71875 37.203125 
Q 30.21875 37.5 29.59375 37.5 
Q 28.171875 37.5 26.90625 36.421875 
Q 24.90625 34.765625 23.875 31.6875 
Q 22.3125 26.953125 22.3125 21.234375 
L 22.3125 10.75 
L 22.359375 8.015625 
Q 22.359375 5.21875 22.703125 4.4375 
Q 23.296875 3.125 24.4375 2.515625 
Q 25.59375 1.90625 28.328125 1.765625 
L 28.328125 0 
L 3.65625 0 
L 3.65625 1.765625 
Q 6.640625 2 7.6875 3.390625 
Q 8.734375 4.78125 8.734375 10.75 
L 8.734375 35.984375 
Q 8.734375 39.890625 8.34375 40.96875 
Q 7.859375 42.328125 6.921875 42.96875 
Q 6 43.609375 3.65625 43.84375 
L 3.65625 45.65625 
z
" id="TimesNewRomanPS-BoldMT-114"/>
      <path d="M 22.3125 45.65625 
L 22.3125 39.65625 
Q 26.078125 43.75 29.265625 45.375 
Q 32.46875 47.015625 36.28125 47.015625 
Q 40.671875 47.015625 43.640625 44.96875 
Q 46.625 42.921875 48.25 38.71875 
Q 52.15625 43.109375 55.734375 45.0625 
Q 59.328125 47.015625 63.234375 47.015625 
Q 67.96875 47.015625 70.765625 44.84375 
Q 73.578125 42.671875 74.671875 39.328125 
Q 75.78125 35.984375 75.78125 28.65625 
L 75.78125 9.96875 
Q 75.78125 4.6875 76.734375 3.421875 
Q 77.6875 2.15625 80.71875 1.765625 
L 80.71875 0 
L 57.125 0 
L 57.125 1.765625 
Q 59.90625 2 61.234375 3.90625 
Q 62.109375 5.21875 62.109375 9.96875 
L 62.109375 29.59375 
Q 62.109375 35.6875 61.625 37.34375 
Q 61.140625 39.015625 60.078125 39.8125 
Q 59.03125 40.625 57.625 40.625 
Q 55.515625 40.625 53.359375 39.078125 
Q 51.21875 37.546875 49.03125 34.46875 
L 49.03125 9.96875 
Q 49.03125 5.03125 49.859375 3.765625 
Q 50.984375 1.953125 54.15625 1.765625 
L 54.15625 0 
L 30.515625 0 
L 30.515625 1.765625 
Q 32.421875 1.859375 33.515625 2.703125 
Q 34.625 3.5625 34.984375 4.75 
Q 35.359375 5.953125 35.359375 9.96875 
L 35.359375 29.59375 
Q 35.359375 35.796875 34.859375 37.359375 
Q 34.375 38.921875 33.21875 39.796875 
Q 32.078125 40.671875 30.765625 40.671875 
Q 28.8125 40.671875 27.203125 39.65625 
Q 24.90625 38.140625 22.3125 34.46875 
L 22.3125 9.96875 
Q 22.3125 5.125 23.265625 3.578125 
Q 24.21875 2.046875 27.25 1.765625 
L 27.25 0 
L 3.71875 0 
L 3.71875 1.765625 
Q 6.59375 2.046875 7.8125 3.609375 
Q 8.640625 4.6875 8.640625 9.96875 
L 8.640625 35.75 
Q 8.640625 40.921875 7.6875 42.1875 
Q 6.734375 43.453125 3.71875 43.84375 
L 3.71875 45.65625 
z
" id="TimesNewRomanPS-BoldMT-109"/>
     </defs>
     <g transform="translate(407.94375 58.470312)scale(0.1 -0.1)">
      <use xlink:href="#TimesNewRomanPS-BoldMT-78"/>
      <use x="72.216797" xlink:href="#TimesNewRomanPS-BoldMT-111"/>
      <use x="122.216797" xlink:href="#TimesNewRomanPS-BoldMT-114"/>
      <use x="166.601562" xlink:href="#TimesNewRomanPS-BoldMT-109"/>
     </g>
    </g>
    <g id="patch_30">
     <path d="M 379.94375 72.609375 
L 399.94375 72.609375 
L 399.94375 65.609375 
L 379.94375 65.609375 
z
" style="fill:#e09c63;opacity:0.6;stroke:#ecc7a4;stroke-linejoin:miter;"/>
    </g>
    <g id="text_36">
     <!-- Base -->
     <defs>
      <path d="M 44.484375 35.109375 
Q 53.90625 32.90625 57.71875 29.78125 
Q 63.1875 25.34375 63.1875 18.265625 
Q 63.1875 10.796875 57.171875 5.90625 
Q 49.8125 0 35.75 0 
L 2.09375 0 
L 2.09375 1.8125 
Q 6.6875 1.8125 8.328125 2.65625 
Q 9.96875 3.515625 10.625 4.875 
Q 11.28125 6.25 11.28125 11.625 
L 11.28125 54.59375 
Q 11.28125 59.96875 10.625 61.359375 
Q 9.96875 62.75 8.296875 63.578125 
Q 6.640625 64.40625 2.09375 64.40625 
L 2.09375 66.21875 
L 33.84375 66.21875 
Q 45.21875 66.21875 49.953125 64.1875 
Q 54.6875 62.15625 57.421875 58.125 
Q 60.15625 54.109375 60.15625 49.5625 
Q 60.15625 44.78125 56.6875 41.046875 
Q 53.21875 37.3125 44.484375 35.109375 
z
M 26.703125 36.421875 
Q 33.640625 36.421875 36.9375 37.984375 
Q 40.234375 39.546875 41.984375 42.375 
Q 43.75 45.21875 43.75 49.609375 
Q 43.75 54 42.015625 56.8125 
Q 40.28125 59.625 37.0625 61.078125 
Q 33.84375 62.546875 26.703125 62.5 
z
M 26.703125 32.625 
L 26.703125 11.375 
L 26.65625 8.9375 
Q 26.65625 6.296875 28 4.953125 
Q 29.34375 3.609375 31.984375 3.609375 
Q 35.890625 3.609375 39.1875 5.34375 
Q 42.484375 7.078125 44.234375 10.375 
Q 46 13.671875 46 17.71875 
Q 46 22.359375 43.84375 26.046875 
Q 41.703125 29.734375 37.9375 31.203125 
Q 34.1875 32.671875 26.703125 32.625 
z
" id="TimesNewRomanPS-BoldMT-66"/>
      <path d="M 28.5625 6.734375 
Q 20.21875 -0.640625 13.578125 -0.640625 
Q 9.671875 -0.640625 7.078125 1.921875 
Q 4.5 4.5 4.5 8.34375 
Q 4.5 13.578125 8.984375 17.75 
Q 13.484375 21.921875 28.5625 28.859375 
L 28.5625 33.453125 
Q 28.5625 38.625 28 39.96875 
Q 27.4375 41.3125 25.875 42.3125 
Q 24.3125 43.3125 22.359375 43.3125 
Q 19.1875 43.3125 17.140625 41.890625 
Q 15.875 41.015625 15.875 39.84375 
Q 15.875 38.8125 17.234375 37.3125 
Q 19.09375 35.203125 19.09375 33.25 
Q 19.09375 30.859375 17.3125 29.171875 
Q 15.53125 27.484375 12.640625 27.484375 
Q 9.578125 27.484375 7.5 29.34375 
Q 5.421875 31.203125 5.421875 33.6875 
Q 5.421875 37.203125 8.203125 40.40625 
Q 10.984375 43.609375 15.96875 45.3125 
Q 20.953125 47.015625 26.3125 47.015625 
Q 32.8125 47.015625 36.59375 44.25 
Q 40.375 41.5 41.5 38.28125 
Q 42.1875 36.234375 42.1875 28.859375 
L 42.1875 11.140625 
Q 42.1875 8.015625 42.421875 7.203125 
Q 42.671875 6.390625 43.15625 6 
Q 43.65625 5.609375 44.28125 5.609375 
Q 45.5625 5.609375 46.875 7.421875 
L 48.34375 6.25 
Q 45.90625 2.640625 43.28125 1 
Q 40.671875 -0.640625 37.359375 -0.640625 
Q 33.453125 -0.640625 31.25 1.1875 
Q 29.046875 3.03125 28.5625 6.734375 
z
M 28.5625 10.296875 
L 28.5625 25.59375 
Q 22.65625 22.125 19.78125 18.171875 
Q 17.875 15.53125 17.875 12.84375 
Q 17.875 10.59375 19.484375 8.890625 
Q 20.703125 7.5625 22.90625 7.5625 
Q 25.34375 7.5625 28.5625 10.296875 
z
" id="TimesNewRomanPS-BoldMT-97"/>
      <path d="M 32.234375 46.921875 
L 32.953125 31.34375 
L 31.296875 31.34375 
Q 28.328125 38.28125 25.125 40.8125 
Q 21.921875 43.359375 18.75 43.359375 
Q 16.75 43.359375 15.328125 42.015625 
Q 13.921875 40.671875 13.921875 38.921875 
Q 13.921875 37.59375 14.890625 36.375 
Q 16.453125 34.375 23.625 29.515625 
Q 30.8125 24.65625 33.078125 21.265625 
Q 35.359375 17.875 35.359375 13.671875 
Q 35.359375 9.859375 33.453125 6.203125 
Q 31.546875 2.546875 28.078125 0.578125 
Q 24.609375 -1.375 20.40625 -1.375 
Q 17.140625 -1.375 11.671875 0.6875 
Q 10.203125 1.21875 9.671875 1.21875 
Q 8.0625 1.21875 6.984375 -1.21875 
L 5.375 -1.21875 
L 4.59375 15.1875 
L 6.25 15.1875 
Q 8.453125 8.734375 12.28125 5.515625 
Q 16.109375 2.296875 19.53125 2.296875 
Q 21.875 2.296875 23.359375 3.734375 
Q 24.859375 5.171875 24.859375 7.234375 
Q 24.859375 9.578125 23.390625 11.28125 
Q 21.921875 12.984375 16.84375 16.453125 
Q 9.375 21.625 7.171875 24.359375 
Q 3.953125 28.375 3.953125 33.203125 
Q 3.953125 38.484375 7.59375 42.75 
Q 11.234375 47.015625 18.109375 47.015625 
Q 21.828125 47.015625 25.296875 45.21875 
Q 26.609375 44.484375 27.4375 44.484375 
Q 28.328125 44.484375 28.859375 44.84375 
Q 29.390625 45.21875 30.5625 46.921875 
z
" id="TimesNewRomanPS-BoldMT-115"/>
      <path d="M 42.046875 24.46875 
L 17 24.46875 
Q 17.4375 15.375 21.828125 10.109375 
Q 25.203125 6.0625 29.9375 6.0625 
Q 32.859375 6.0625 35.25 7.6875 
Q 37.640625 9.328125 40.375 13.578125 
L 42.046875 12.5 
Q 38.328125 4.9375 33.828125 1.78125 
Q 29.34375 -1.375 23.4375 -1.375 
Q 13.28125 -1.375 8.0625 6.453125 
Q 3.859375 12.75 3.859375 22.078125 
Q 3.859375 33.5 10.03125 40.25 
Q 16.21875 47.015625 24.515625 47.015625 
Q 31.453125 47.015625 36.546875 41.328125 
Q 41.65625 35.640625 42.046875 24.46875 
z
M 30.03125 27.734375 
Q 30.03125 35.59375 29.171875 38.515625 
Q 28.328125 41.453125 26.515625 42.96875 
Q 25.484375 43.84375 23.78125 43.84375 
Q 21.234375 43.84375 19.625 41.359375 
Q 16.75 37.015625 16.75 29.4375 
L 16.75 27.734375 
z
" id="TimesNewRomanPS-BoldMT-101"/>
     </defs>
     <g transform="translate(407.94375 72.609375)scale(0.1 -0.1)">
      <use xlink:href="#TimesNewRomanPS-BoldMT-66"/>
      <use x="66.699219" xlink:href="#TimesNewRomanPS-BoldMT-97"/>
      <use x="116.699219" xlink:href="#TimesNewRomanPS-BoldMT-115"/>
      <use x="155.615234" xlink:href="#TimesNewRomanPS-BoldMT-101"/>
     </g>
    </g>
    <g id="patch_31">
     <path d="M 379.94375 86.748437 
L 399.94375 86.748437 
L 399.94375 79.748437 
L 379.94375 79.748437 
z
" style="fill:#f6d6a3;opacity:0.6;stroke:#f6e2bf;stroke-linejoin:miter;"/>
    </g>
    <g id="text_37">
     <!-- GPT3.5 -->
     <defs>
      <path d="M 69 67.71875 
L 69 44.390625 
L 67.1875 44.390625 
Q 63.921875 53.953125 57.375 58.9375 
Q 50.828125 63.921875 43.0625 63.921875 
Q 35.640625 63.921875 30.703125 59.734375 
Q 25.78125 55.5625 23.734375 48.09375 
Q 21.6875 40.625 21.6875 32.765625 
Q 21.6875 23.25 23.921875 16.0625 
Q 26.171875 8.890625 31.171875 5.515625 
Q 36.1875 2.15625 43.0625 2.15625 
Q 45.453125 2.15625 47.96875 2.65625 
Q 50.484375 3.171875 53.125 4.15625 
L 53.125 17.921875 
Q 53.125 21.828125 52.578125 22.96875 
Q 52.046875 24.125 50.359375 25.046875 
Q 48.6875 25.984375 46.296875 25.984375 
L 44.578125 25.984375 
L 44.578125 27.78125 
L 76.765625 27.78125 
L 76.765625 25.984375 
Q 73.09375 25.734375 71.65625 24.96875 
Q 70.21875 24.21875 69.4375 22.46875 
Q 69 21.53125 69 17.921875 
L 69 4.15625 
Q 62.640625 1.3125 55.78125 -0.125 
Q 48.921875 -1.5625 41.546875 -1.5625 
Q 32.125 -1.5625 25.890625 1 
Q 19.671875 3.5625 14.90625 7.734375 
Q 10.15625 11.921875 7.46875 17.140625 
Q 4.046875 23.875 4.046875 32.234375 
Q 4.046875 47.171875 14.546875 57.46875 
Q 25.046875 67.78125 40.96875 67.78125 
Q 45.90625 67.78125 49.859375 67 
Q 52 66.609375 56.8125 64.765625 
Q 61.625 62.9375 62.5 62.9375 
Q 63.875 62.9375 65.046875 63.9375 
Q 66.21875 64.9375 67.1875 67.71875 
z
" id="TimesNewRomanPS-BoldMT-71"/>
      <path d="M 27 29.984375 
L 27 11.625 
Q 27 6.25 27.65625 4.859375 
Q 28.328125 3.46875 30 2.640625 
Q 31.6875 1.8125 36.1875 1.8125 
L 36.1875 0 
L 2.546875 0 
L 2.546875 1.8125 
Q 7.125 1.8125 8.765625 2.65625 
Q 10.40625 3.515625 11.0625 4.875 
Q 11.71875 6.25 11.71875 11.625 
L 11.71875 54.59375 
Q 11.71875 59.96875 11.0625 61.359375 
Q 10.40625 62.75 8.734375 63.578125 
Q 7.078125 64.40625 2.546875 64.40625 
L 2.546875 66.21875 
L 31.390625 66.21875 
Q 45.65625 66.21875 51.859375 61.140625 
Q 58.0625 56.0625 58.0625 48.4375 
Q 58.0625 42 54.046875 37.40625 
Q 50.046875 32.8125 43.015625 31.15625 
Q 38.28125 29.984375 27 29.984375 
z
M 27 62.40625 
L 27 33.796875 
Q 28.609375 33.6875 29.4375 33.6875 
Q 35.40625 33.6875 38.625 37.21875 
Q 41.84375 40.765625 41.84375 48.1875 
Q 41.84375 55.5625 38.625 58.984375 
Q 35.40625 62.40625 29 62.40625 
z
" id="TimesNewRomanPS-BoldMT-80"/>
      <path d="M 63.09375 66.21875 
L 63.09375 48.296875 
L 61.328125 48.296875 
Q 59.765625 54.5 57.859375 57.203125 
Q 55.953125 59.90625 52.640625 61.53125 
Q 50.78125 62.40625 46.140625 62.40625 
L 41.21875 62.40625 
L 41.21875 11.328125 
Q 41.21875 6.25 41.765625 4.984375 
Q 42.328125 3.71875 43.96875 2.765625 
Q 45.609375 1.8125 48.4375 1.8125 
L 50.640625 1.8125 
L 50.640625 0 
L 15.96875 0 
L 15.96875 1.8125 
L 18.171875 1.8125 
Q 21.046875 1.8125 22.796875 2.828125 
Q 24.078125 3.515625 24.8125 5.171875 
Q 25.34375 6.34375 25.34375 11.328125 
L 25.34375 62.40625 
L 20.5625 62.40625 
Q 13.875 62.40625 10.84375 59.578125 
Q 6.59375 55.609375 5.46875 48.296875 
L 3.609375 48.296875 
L 3.609375 66.21875 
z
" id="TimesNewRomanPS-BoldMT-84"/>
     </defs>
     <g transform="translate(407.94375 86.748437)scale(0.1 -0.1)">
      <use xlink:href="#TimesNewRomanPS-BoldMT-71"/>
      <use x="77.783203" xlink:href="#TimesNewRomanPS-BoldMT-80"/>
      <use x="138.867188" xlink:href="#TimesNewRomanPS-BoldMT-84"/>
      <use x="205.566406" xlink:href="#TimesNewRomanPS-BoldMT-51"/>
      <use x="255.566406" xlink:href="#TimesNewRomanPS-BoldMT-46"/>
      <use x="280.566406" xlink:href="#TimesNewRomanPS-BoldMT-53"/>
     </g>
    </g>
   </g>
  </g>
 </g>
 <defs>
  <clipPath id="pd4400eef2e">
   <rect height="285.935" width="404.69875" x="45.30125" y="28.33125"/>
  </clipPath>
 </defs>
</svg>
